G04*
G04 #@! TF.GenerationSoftware,Altium Limited,Altium Designer,22.11.1 (43)*
G04*
G04 Layer_Physical_Order=2*
G04 Layer_Color=16711680*
%FSLAX25Y25*%
%MOIN*%
G70*
G04*
G04 #@! TF.SameCoordinates,88FEEC96-C8F5-481B-BEC2-3E2380618A1E*
G04*
G04*
G04 #@! TF.FilePolarity,Positive*
G04*
G01*
G75*
%ADD12C,0.00591*%
%ADD26C,0.03543*%
%ADD27C,0.07087*%
%ADD28R,0.07087X0.07087*%
%ADD29C,0.01181*%
%ADD30C,0.20472*%
%ADD31C,0.02362*%
G36*
X-103025Y3404D02*
X-102481Y2462D01*
X-101711Y1692D01*
X-100769Y1148D01*
X-99717Y866D01*
X-98629D01*
X-97578Y1148D01*
X-96957Y1506D01*
X-95195Y-256D01*
Y-2624D01*
X-95695Y-2758D01*
X-95865Y-2462D01*
X-96635Y-1692D01*
X-97578Y-1148D01*
X-98629Y-866D01*
X-99717D01*
X-100769Y-1148D01*
X-101711Y-1692D01*
X-102481Y-2462D01*
X-103025Y-3404D01*
X-103025Y-3405D01*
X-103525Y-3339D01*
Y3339D01*
X-103025Y3405D01*
X-103025Y3404D01*
D02*
G37*
G36*
X-74821Y9543D02*
X-75039Y9134D01*
X-75321Y9134D01*
X-83307D01*
Y866D01*
X-75321D01*
X-75039Y866D01*
X-74821Y457D01*
Y-2452D01*
X-75321Y-2586D01*
X-75538Y-2210D01*
X-76384Y-1364D01*
X-77420Y-766D01*
X-78575Y-457D01*
X-78673D01*
Y-5000D01*
Y-9543D01*
X-78575D01*
X-77420Y-9234D01*
X-76384Y-8636D01*
X-75538Y-7790D01*
X-75503Y-7730D01*
X-74924Y-7727D01*
X-74833Y-7877D01*
X-74708Y-9147D01*
X-74336Y-10371D01*
X-73733Y-11500D01*
X-72922Y-12489D01*
X-71933Y-13300D01*
X-70805Y-13903D01*
X-69580Y-14275D01*
X-68317Y-14399D01*
X-68317Y-14389D01*
X-68316Y-14388D01*
X-17712Y-14388D01*
X-17711Y-14389D01*
X-17711Y-14400D01*
X-16443Y-14275D01*
X-15219Y-13903D01*
X-14091Y-13300D01*
X-13102Y-12489D01*
X-12290Y-11500D01*
X-11687Y-10371D01*
X-11316Y-9147D01*
X-11191Y-7877D01*
X-11203Y-7874D01*
Y-1675D01*
X-10703Y-1636D01*
X-10560Y-2535D01*
X-10034Y-4156D01*
X-9260Y-5675D01*
X-8258Y-7053D01*
X-7053Y-8258D01*
X-5675Y-9260D01*
X-4156Y-10034D01*
X-2535Y-10560D01*
X-852Y-10827D01*
X852D01*
X2535Y-10560D01*
X4156Y-10034D01*
X5675Y-9260D01*
X7053Y-8258D01*
X8258Y-7053D01*
X9260Y-5675D01*
X10034Y-4156D01*
X10560Y-2535D01*
X10827Y-852D01*
Y852D01*
X10560Y2535D01*
X10034Y4156D01*
X9260Y5675D01*
X8258Y7053D01*
X7053Y8258D01*
X5675Y9260D01*
X4156Y10034D01*
X2535Y10560D01*
X852Y10827D01*
X-852D01*
X-2535Y10560D01*
X-4156Y10034D01*
X-5675Y9260D01*
X-7053Y8258D01*
X-8258Y7053D01*
X-9260Y5675D01*
X-10034Y4156D01*
X-10560Y2535D01*
X-10703Y1636D01*
X-11203Y1675D01*
Y15140D01*
X13368D01*
Y-46636D01*
X-103525Y-46636D01*
Y-6661D01*
X-103025Y-6595D01*
X-103025Y-6596D01*
X-102481Y-7538D01*
X-101711Y-8308D01*
X-100769Y-8852D01*
X-99717Y-9134D01*
X-98629D01*
X-97578Y-8852D01*
X-96635Y-8308D01*
X-95865Y-7538D01*
X-95477Y-6866D01*
X-95106Y-6810D01*
X-94886Y-6828D01*
X-73516Y-28198D01*
X-73224Y-28394D01*
X-72878Y-28462D01*
X-34811D01*
X-34770Y-28563D01*
X-34271Y-29061D01*
X-33620Y-29331D01*
X-32915D01*
X-32264Y-29061D01*
X-31766Y-28563D01*
X-31496Y-27911D01*
Y-27207D01*
X-31766Y-26555D01*
X-32264Y-26057D01*
X-32915Y-25787D01*
X-33620D01*
X-34271Y-26057D01*
X-34770Y-26555D01*
X-34811Y-26656D01*
X-72504D01*
X-89526Y-9634D01*
X-89319Y-9134D01*
X-88629D01*
X-87578Y-8852D01*
X-86635Y-8308D01*
X-85865Y-7538D01*
X-85321Y-6596D01*
X-85039Y-5544D01*
Y-4456D01*
X-85321Y-3404D01*
X-85865Y-2462D01*
X-86635Y-1692D01*
X-87578Y-1148D01*
X-88629Y-866D01*
X-89717D01*
X-90769Y-1148D01*
X-91711Y-1692D01*
X-92481Y-2462D01*
X-92888Y-3167D01*
X-93388Y-3033D01*
Y118D01*
X-93388Y118D01*
X-93457Y464D01*
X-93653Y757D01*
X-93653Y757D01*
X-95679Y2784D01*
X-95321Y3404D01*
X-95039Y4456D01*
Y5544D01*
X-95321Y6596D01*
X-95865Y7538D01*
X-96635Y8308D01*
X-97578Y8852D01*
X-98629Y9134D01*
X-99717D01*
X-100769Y8852D01*
X-101711Y8308D01*
X-102481Y7538D01*
X-103025Y6596D01*
X-103025Y6595D01*
X-103525Y6661D01*
Y15258D01*
X-74821D01*
Y9543D01*
D02*
G37*
%LPC*%
G36*
X-88629Y9134D02*
X-89717D01*
X-90769Y8852D01*
X-91711Y8308D01*
X-92481Y7538D01*
X-93025Y6596D01*
X-93307Y5544D01*
Y4456D01*
X-93025Y3404D01*
X-92481Y2462D01*
X-91711Y1692D01*
X-90769Y1148D01*
X-89717Y866D01*
X-88629D01*
X-87578Y1148D01*
X-86635Y1692D01*
X-85865Y2462D01*
X-85321Y3404D01*
X-85039Y4456D01*
Y5544D01*
X-85321Y6596D01*
X-85865Y7538D01*
X-86635Y8308D01*
X-87578Y8852D01*
X-88629Y9134D01*
D02*
G37*
G36*
X-79673Y-457D02*
X-79771D01*
X-80927Y-766D01*
X-81963Y-1364D01*
X-82809Y-2210D01*
X-83407Y-3246D01*
X-83716Y-4402D01*
Y-4500D01*
X-79673D01*
Y-457D01*
D02*
G37*
G36*
Y-5500D02*
X-83716D01*
Y-5598D01*
X-83407Y-6754D01*
X-82809Y-7790D01*
X-81963Y-8636D01*
X-80927Y-9234D01*
X-79771Y-9543D01*
X-79673D01*
Y-5500D01*
D02*
G37*
G36*
X-48713Y-30720D02*
Y-32374D01*
X-47059D01*
X-47363Y-31639D01*
X-47977Y-31025D01*
X-48713Y-30720D01*
D02*
G37*
G36*
X-49713D02*
X-50448Y-31025D01*
X-51062Y-31639D01*
X-51366Y-32374D01*
X-49713D01*
Y-30720D01*
D02*
G37*
G36*
X-81783D02*
Y-32374D01*
X-80130D01*
X-80434Y-31639D01*
X-81048Y-31025D01*
X-81783Y-30720D01*
D02*
G37*
G36*
X-82784D02*
X-83519Y-31025D01*
X-84132Y-31639D01*
X-84437Y-32374D01*
X-82784D01*
Y-30720D01*
D02*
G37*
G36*
X-65051Y-31311D02*
Y-32965D01*
X-63398D01*
X-63702Y-32229D01*
X-64316Y-31615D01*
X-65051Y-31311D01*
D02*
G37*
G36*
X-66051D02*
X-66787Y-31615D01*
X-67400Y-32229D01*
X-67705Y-32965D01*
X-66051D01*
Y-31311D01*
D02*
G37*
G36*
X-47059Y-33374D02*
X-48713D01*
Y-35028D01*
X-47977Y-34723D01*
X-47363Y-34110D01*
X-47059Y-33374D01*
D02*
G37*
G36*
X-49713D02*
X-51366D01*
X-51062Y-34110D01*
X-50448Y-34723D01*
X-49713Y-35028D01*
Y-33374D01*
D02*
G37*
G36*
X-80130D02*
X-81783D01*
Y-35028D01*
X-81048Y-34723D01*
X-80434Y-34110D01*
X-80130Y-33374D01*
D02*
G37*
G36*
X-82784D02*
X-84437D01*
X-84132Y-34110D01*
X-83519Y-34723D01*
X-82784Y-35028D01*
Y-33374D01*
D02*
G37*
G36*
X-63398Y-33965D02*
X-65051D01*
Y-35618D01*
X-64316Y-35314D01*
X-63702Y-34700D01*
X-63398Y-33965D01*
D02*
G37*
G36*
X-66051D02*
X-67705D01*
X-67400Y-34700D01*
X-66787Y-35314D01*
X-66051Y-35618D01*
Y-33965D01*
D02*
G37*
G36*
X470Y-35433D02*
X-470D01*
X-1338Y-35793D01*
X-2003Y-36457D01*
X-2362Y-37325D01*
Y-38265D01*
X-2003Y-39133D01*
X-1338Y-39798D01*
X-470Y-40157D01*
X470D01*
X1338Y-39798D01*
X2003Y-39133D01*
X2362Y-38265D01*
Y-37325D01*
X2003Y-36457D01*
X1338Y-35793D01*
X470Y-35433D01*
D02*
G37*
G36*
X-26302D02*
X-27242D01*
X-28110Y-35793D01*
X-28774Y-36457D01*
X-29134Y-37325D01*
Y-38265D01*
X-28774Y-39133D01*
X-28110Y-39798D01*
X-27242Y-40157D01*
X-26302D01*
X-25434Y-39798D01*
X-24769Y-39133D01*
X-24409Y-38265D01*
Y-37325D01*
X-24769Y-36457D01*
X-25434Y-35793D01*
X-26302Y-35433D01*
D02*
G37*
G36*
X-17413Y-41153D02*
Y-42807D01*
X-15760D01*
X-16064Y-42072D01*
X-16678Y-41458D01*
X-17413Y-41153D01*
D02*
G37*
G36*
X-18413D02*
X-19149Y-41458D01*
X-19762Y-42072D01*
X-20067Y-42807D01*
X-18413D01*
Y-41153D01*
D02*
G37*
G36*
X-15760Y-43807D02*
X-17413D01*
Y-45461D01*
X-16678Y-45156D01*
X-16064Y-44543D01*
X-15760Y-43807D01*
D02*
G37*
G36*
X-18413D02*
X-20067D01*
X-19762Y-44543D01*
X-19149Y-45156D01*
X-18413Y-45461D01*
Y-43807D01*
D02*
G37*
%LPD*%
D12*
X-99173Y5000D02*
X-94291Y118D01*
Y-6146D02*
Y118D01*
Y-6146D02*
X-72878Y-27559D01*
X-33268D01*
D26*
X-26772Y-37795D02*
D03*
X0D02*
D03*
D27*
X-99173Y-5000D02*
D03*
Y5000D02*
D03*
X-89173Y-5000D02*
D03*
Y5000D02*
D03*
X-79173Y-5000D02*
D03*
D28*
Y5000D02*
D03*
D29*
X5568Y-5568D02*
D03*
X0Y-7874D02*
D03*
X-5568Y-5568D02*
D03*
X-7874Y0D02*
D03*
X-5568Y5568D02*
D03*
X0Y7874D02*
D03*
X5568Y5568D02*
D03*
X7874Y0D02*
D03*
D30*
X0D02*
D03*
D31*
X-17913Y-43307D02*
D03*
X-33268Y-27559D02*
D03*
X-49213Y-32874D02*
D03*
X-65551Y-33465D02*
D03*
X-82284Y-32874D02*
D03*
M02*
