G04*
G04 #@! TF.GenerationSoftware,Altium Limited,Altium Designer,22.11.1 (43)*
G04*
G04 Layer_Color=32896*
%FSLAX25Y25*%
%MOIN*%
G70*
G04*
G04 #@! TF.SameCoordinates,88FEEC96-C8F5-481B-BEC2-3E2380618A1E*
G04*
G04*
G04 #@! TF.FilePolarity,Positive*
G04*
G01*
G75*
G36*
X-71151Y-23938D02*
X-71768D01*
Y-23230D01*
X-71151D01*
Y-23938D01*
D02*
G37*
G36*
X-48434Y-28274D02*
X-49005D01*
Y-27815D01*
X-49077Y-27907D01*
X-49156Y-27992D01*
X-49234Y-28064D01*
X-49320Y-28123D01*
X-49405Y-28176D01*
X-49484Y-28222D01*
X-49569Y-28255D01*
X-49648Y-28287D01*
X-49720Y-28307D01*
X-49792Y-28327D01*
X-49858Y-28333D01*
X-49910Y-28346D01*
X-49956D01*
X-49989Y-28353D01*
X-50015D01*
X-50133Y-28346D01*
X-50251Y-28333D01*
X-50363Y-28307D01*
X-50468Y-28274D01*
X-50566Y-28235D01*
X-50658Y-28195D01*
X-50743Y-28150D01*
X-50822Y-28097D01*
X-50894Y-28051D01*
X-50953Y-28005D01*
X-51012Y-27966D01*
X-51052Y-27926D01*
X-51091Y-27894D01*
X-51117Y-27867D01*
X-51130Y-27854D01*
X-51137Y-27848D01*
X-51222Y-27749D01*
X-51288Y-27638D01*
X-51353Y-27526D01*
X-51406Y-27408D01*
X-51452Y-27284D01*
X-51491Y-27165D01*
X-51517Y-27047D01*
X-51544Y-26929D01*
X-51563Y-26824D01*
X-51576Y-26719D01*
X-51590Y-26634D01*
X-51596Y-26555D01*
X-51603Y-26490D01*
Y-26437D01*
Y-26411D01*
Y-26398D01*
X-51596Y-26254D01*
X-51583Y-26116D01*
X-51570Y-25985D01*
X-51550Y-25880D01*
X-51524Y-25788D01*
X-51511Y-25716D01*
X-51504Y-25690D01*
X-51498Y-25670D01*
X-51491Y-25663D01*
Y-25657D01*
X-51445Y-25532D01*
X-51399Y-25420D01*
X-51347Y-25316D01*
X-51294Y-25230D01*
X-51248Y-25158D01*
X-51216Y-25112D01*
X-51189Y-25079D01*
X-51183Y-25066D01*
X-51104Y-24981D01*
X-51025Y-24902D01*
X-50947Y-24837D01*
X-50868Y-24778D01*
X-50796Y-24738D01*
X-50743Y-24705D01*
X-50704Y-24686D01*
X-50697Y-24679D01*
X-50691D01*
X-50579Y-24633D01*
X-50461Y-24600D01*
X-50356Y-24574D01*
X-50258Y-24561D01*
X-50173Y-24548D01*
X-50107Y-24542D01*
X-50048D01*
X-49936Y-24548D01*
X-49831Y-24561D01*
X-49726Y-24587D01*
X-49635Y-24620D01*
X-49549Y-24660D01*
X-49464Y-24699D01*
X-49392Y-24745D01*
X-49320Y-24791D01*
X-49261Y-24837D01*
X-49208Y-24883D01*
X-49162Y-24922D01*
X-49123Y-24961D01*
X-49090Y-24994D01*
X-49070Y-25020D01*
X-49057Y-25034D01*
X-49051Y-25040D01*
Y-23230D01*
X-48434D01*
Y-28274D01*
D02*
G37*
G36*
X-86128Y-28274D02*
X-86797D01*
Y-25899D01*
X-89408D01*
Y-28274D01*
X-90077D01*
Y-23230D01*
X-89408D01*
Y-25302D01*
X-86797D01*
Y-23230D01*
X-86128D01*
Y-28274D01*
D02*
G37*
G36*
X-38463Y-24548D02*
X-38306Y-24561D01*
X-38161Y-24581D01*
X-38043Y-24607D01*
X-37938Y-24633D01*
X-37899Y-24640D01*
X-37866Y-24653D01*
X-37840Y-24660D01*
X-37820Y-24666D01*
X-37807Y-24673D01*
X-37800D01*
X-37676Y-24725D01*
X-37564Y-24784D01*
X-37472Y-24843D01*
X-37394Y-24902D01*
X-37335Y-24961D01*
X-37289Y-25001D01*
X-37262Y-25027D01*
X-37256Y-25040D01*
X-37190Y-25132D01*
X-37131Y-25237D01*
X-37085Y-25342D01*
X-37053Y-25440D01*
X-37020Y-25526D01*
X-37000Y-25598D01*
X-36994Y-25624D01*
Y-25644D01*
X-36987Y-25657D01*
Y-25663D01*
X-37590Y-25749D01*
X-37630Y-25617D01*
X-37682Y-25499D01*
X-37728Y-25407D01*
X-37781Y-25335D01*
X-37820Y-25276D01*
X-37859Y-25237D01*
X-37886Y-25217D01*
X-37892Y-25211D01*
X-37977Y-25158D01*
X-38083Y-25119D01*
X-38187Y-25093D01*
X-38299Y-25073D01*
X-38391Y-25060D01*
X-38469Y-25053D01*
X-38542D01*
X-38706Y-25060D01*
X-38850Y-25086D01*
X-38968Y-25119D01*
X-39073Y-25158D01*
X-39152Y-25197D01*
X-39204Y-25230D01*
X-39237Y-25256D01*
X-39250Y-25263D01*
X-39309Y-25329D01*
X-39355Y-25414D01*
X-39381Y-25499D01*
X-39408Y-25591D01*
X-39421Y-25670D01*
X-39427Y-25742D01*
Y-25762D01*
Y-25781D01*
Y-25795D01*
Y-25801D01*
Y-25814D01*
Y-25840D01*
Y-25893D01*
X-39421Y-25919D01*
Y-25939D01*
Y-25952D01*
Y-25958D01*
X-39349Y-25978D01*
X-39270Y-26004D01*
X-39099Y-26044D01*
X-38916Y-26083D01*
X-38739Y-26116D01*
X-38653Y-26129D01*
X-38574Y-26142D01*
X-38502Y-26149D01*
X-38443Y-26155D01*
X-38391Y-26168D01*
X-38351D01*
X-38325Y-26175D01*
X-38319D01*
X-38187Y-26195D01*
X-38076Y-26208D01*
X-37984Y-26221D01*
X-37905Y-26241D01*
X-37846Y-26247D01*
X-37800Y-26260D01*
X-37774Y-26267D01*
X-37768D01*
X-37676Y-26293D01*
X-37590Y-26326D01*
X-37518Y-26359D01*
X-37453Y-26391D01*
X-37400Y-26424D01*
X-37354Y-26450D01*
X-37328Y-26464D01*
X-37321Y-26470D01*
X-37249Y-26523D01*
X-37190Y-26582D01*
X-37131Y-26641D01*
X-37085Y-26693D01*
X-37053Y-26746D01*
X-37020Y-26785D01*
X-37007Y-26811D01*
X-37000Y-26824D01*
X-36961Y-26910D01*
X-36934Y-26995D01*
X-36908Y-27080D01*
X-36895Y-27152D01*
X-36889Y-27218D01*
X-36882Y-27270D01*
Y-27303D01*
Y-27316D01*
X-36889Y-27402D01*
X-36895Y-27480D01*
X-36934Y-27625D01*
X-36987Y-27749D01*
X-37046Y-27861D01*
X-37105Y-27946D01*
X-37151Y-28012D01*
X-37190Y-28051D01*
X-37197Y-28058D01*
X-37203Y-28064D01*
X-37269Y-28117D01*
X-37335Y-28156D01*
X-37486Y-28228D01*
X-37636Y-28281D01*
X-37787Y-28313D01*
X-37918Y-28340D01*
X-37977Y-28346D01*
X-38030D01*
X-38069Y-28353D01*
X-38128D01*
X-38260Y-28346D01*
X-38384Y-28333D01*
X-38502Y-28313D01*
X-38601Y-28294D01*
X-38686Y-28274D01*
X-38752Y-28255D01*
X-38771Y-28248D01*
X-38791Y-28241D01*
X-38798Y-28235D01*
X-38804D01*
X-38922Y-28182D01*
X-39047Y-28117D01*
X-39158Y-28045D01*
X-39257Y-27979D01*
X-39349Y-27913D01*
X-39414Y-27861D01*
X-39440Y-27841D01*
X-39460Y-27828D01*
X-39467Y-27815D01*
X-39473D01*
X-39486Y-27913D01*
X-39506Y-27999D01*
X-39519Y-28077D01*
X-39545Y-28143D01*
X-39558Y-28202D01*
X-39578Y-28241D01*
X-39585Y-28268D01*
X-39591Y-28274D01*
X-40241D01*
X-40201Y-28195D01*
X-40168Y-28117D01*
X-40142Y-28045D01*
X-40116Y-27972D01*
X-40103Y-27920D01*
X-40090Y-27874D01*
X-40083Y-27848D01*
Y-27835D01*
X-40077Y-27782D01*
X-40070Y-27723D01*
Y-27651D01*
X-40064Y-27566D01*
X-40057Y-27389D01*
Y-27205D01*
X-40051Y-27113D01*
Y-27028D01*
Y-26949D01*
Y-26883D01*
Y-26824D01*
Y-26785D01*
Y-26752D01*
Y-26746D01*
Y-25919D01*
Y-25775D01*
X-40044Y-25657D01*
X-40037Y-25558D01*
Y-25480D01*
X-40031Y-25420D01*
X-40024Y-25381D01*
X-40018Y-25355D01*
Y-25348D01*
X-39991Y-25256D01*
X-39965Y-25178D01*
X-39932Y-25106D01*
X-39900Y-25047D01*
X-39867Y-25001D01*
X-39840Y-24961D01*
X-39827Y-24942D01*
X-39821Y-24935D01*
X-39762Y-24876D01*
X-39696Y-24817D01*
X-39624Y-24771D01*
X-39552Y-24732D01*
X-39486Y-24699D01*
X-39434Y-24673D01*
X-39401Y-24660D01*
X-39395Y-24653D01*
X-39388D01*
X-39270Y-24614D01*
X-39152Y-24587D01*
X-39020Y-24568D01*
X-38902Y-24555D01*
X-38798Y-24548D01*
X-38752Y-24542D01*
X-38633D01*
X-38463Y-24548D01*
D02*
G37*
G36*
X-92484Y-24548D02*
X-92327Y-24561D01*
X-92183Y-24581D01*
X-92065Y-24607D01*
X-91960Y-24633D01*
X-91920Y-24640D01*
X-91888Y-24653D01*
X-91861Y-24660D01*
X-91842Y-24666D01*
X-91829Y-24673D01*
X-91822D01*
X-91697Y-24725D01*
X-91586Y-24784D01*
X-91494Y-24843D01*
X-91415Y-24902D01*
X-91356Y-24961D01*
X-91310Y-25001D01*
X-91284Y-25027D01*
X-91277Y-25040D01*
X-91212Y-25132D01*
X-91153Y-25237D01*
X-91107Y-25342D01*
X-91074Y-25440D01*
X-91041Y-25526D01*
X-91022Y-25598D01*
X-91015Y-25624D01*
Y-25644D01*
X-91009Y-25657D01*
Y-25663D01*
X-91612Y-25749D01*
X-91651Y-25617D01*
X-91704Y-25499D01*
X-91750Y-25407D01*
X-91802Y-25335D01*
X-91842Y-25276D01*
X-91881Y-25237D01*
X-91907Y-25217D01*
X-91914Y-25211D01*
X-91999Y-25158D01*
X-92104Y-25119D01*
X-92209Y-25093D01*
X-92321Y-25073D01*
X-92412Y-25060D01*
X-92491Y-25053D01*
X-92563D01*
X-92727Y-25060D01*
X-92872Y-25086D01*
X-92990Y-25119D01*
X-93095Y-25158D01*
X-93173Y-25197D01*
X-93226Y-25230D01*
X-93259Y-25256D01*
X-93272Y-25263D01*
X-93331Y-25329D01*
X-93377Y-25414D01*
X-93403Y-25499D01*
X-93429Y-25591D01*
X-93442Y-25670D01*
X-93449Y-25742D01*
Y-25762D01*
Y-25781D01*
Y-25795D01*
Y-25801D01*
Y-25814D01*
Y-25840D01*
Y-25893D01*
X-93442Y-25919D01*
Y-25939D01*
Y-25952D01*
Y-25958D01*
X-93370Y-25978D01*
X-93291Y-26004D01*
X-93121Y-26044D01*
X-92937Y-26083D01*
X-92760Y-26116D01*
X-92675Y-26129D01*
X-92596Y-26142D01*
X-92524Y-26149D01*
X-92465Y-26155D01*
X-92412Y-26168D01*
X-92373D01*
X-92347Y-26175D01*
X-92340D01*
X-92209Y-26195D01*
X-92098Y-26208D01*
X-92006Y-26221D01*
X-91927Y-26241D01*
X-91868Y-26247D01*
X-91822Y-26260D01*
X-91796Y-26267D01*
X-91789D01*
X-91697Y-26293D01*
X-91612Y-26326D01*
X-91540Y-26359D01*
X-91474Y-26391D01*
X-91422Y-26424D01*
X-91376Y-26450D01*
X-91350Y-26464D01*
X-91343Y-26470D01*
X-91271Y-26523D01*
X-91212Y-26582D01*
X-91153Y-26641D01*
X-91107Y-26693D01*
X-91074Y-26746D01*
X-91041Y-26785D01*
X-91028Y-26811D01*
X-91022Y-26824D01*
X-90982Y-26910D01*
X-90956Y-26995D01*
X-90930Y-27080D01*
X-90917Y-27152D01*
X-90910Y-27218D01*
X-90904Y-27270D01*
Y-27303D01*
Y-27316D01*
X-90910Y-27402D01*
X-90917Y-27480D01*
X-90956Y-27625D01*
X-91009Y-27749D01*
X-91068Y-27861D01*
X-91127Y-27946D01*
X-91172Y-28012D01*
X-91212Y-28051D01*
X-91218Y-28058D01*
X-91225Y-28064D01*
X-91291Y-28117D01*
X-91356Y-28156D01*
X-91507Y-28228D01*
X-91658Y-28281D01*
X-91809Y-28313D01*
X-91940Y-28340D01*
X-91999Y-28346D01*
X-92052D01*
X-92091Y-28353D01*
X-92150D01*
X-92281Y-28346D01*
X-92406Y-28333D01*
X-92524Y-28313D01*
X-92622Y-28294D01*
X-92708Y-28274D01*
X-92773Y-28255D01*
X-92793Y-28248D01*
X-92813Y-28241D01*
X-92819Y-28235D01*
X-92826D01*
X-92944Y-28182D01*
X-93068Y-28117D01*
X-93180Y-28045D01*
X-93278Y-27979D01*
X-93370Y-27913D01*
X-93436Y-27861D01*
X-93462Y-27841D01*
X-93482Y-27828D01*
X-93488Y-27815D01*
X-93495D01*
X-93508Y-27913D01*
X-93528Y-27999D01*
X-93541Y-28077D01*
X-93567Y-28143D01*
X-93580Y-28202D01*
X-93600Y-28241D01*
X-93606Y-28268D01*
X-93613Y-28274D01*
X-94262D01*
X-94223Y-28195D01*
X-94190Y-28117D01*
X-94164Y-28045D01*
X-94138Y-27972D01*
X-94125Y-27920D01*
X-94111Y-27874D01*
X-94105Y-27848D01*
Y-27835D01*
X-94098Y-27782D01*
X-94092Y-27723D01*
Y-27651D01*
X-94085Y-27566D01*
X-94079Y-27389D01*
Y-27205D01*
X-94072Y-27113D01*
Y-27028D01*
Y-26949D01*
Y-26883D01*
Y-26824D01*
Y-26785D01*
Y-26752D01*
Y-26746D01*
Y-25919D01*
Y-25775D01*
X-94065Y-25657D01*
X-94059Y-25558D01*
Y-25480D01*
X-94052Y-25420D01*
X-94046Y-25381D01*
X-94039Y-25355D01*
Y-25348D01*
X-94013Y-25256D01*
X-93987Y-25178D01*
X-93954Y-25106D01*
X-93921Y-25047D01*
X-93888Y-25001D01*
X-93862Y-24961D01*
X-93849Y-24942D01*
X-93842Y-24935D01*
X-93783Y-24876D01*
X-93718Y-24817D01*
X-93646Y-24771D01*
X-93573Y-24732D01*
X-93508Y-24699D01*
X-93455Y-24673D01*
X-93423Y-24660D01*
X-93416Y-24653D01*
X-93410D01*
X-93291Y-24614D01*
X-93173Y-24587D01*
X-93042Y-24568D01*
X-92924Y-24555D01*
X-92819Y-24548D01*
X-92773Y-24542D01*
X-92655D01*
X-92484Y-24548D01*
D02*
G37*
G36*
X-62013Y-28274D02*
X-61987Y-28340D01*
X-61967Y-28386D01*
X-61961Y-28418D01*
X-61954Y-28425D01*
X-61928Y-28491D01*
X-61908Y-28550D01*
X-61869Y-28655D01*
X-61836Y-28733D01*
X-61810Y-28799D01*
X-61790Y-28845D01*
X-61777Y-28871D01*
X-61764Y-28884D01*
Y-28891D01*
X-61699Y-28976D01*
X-61633Y-29035D01*
X-61607Y-29055D01*
X-61580Y-29068D01*
X-61567Y-29081D01*
X-61561D01*
X-61515Y-29107D01*
X-61462Y-29120D01*
X-61351Y-29147D01*
X-61305D01*
X-61265Y-29153D01*
X-61233D01*
X-61115Y-29147D01*
X-61056Y-29133D01*
X-61003Y-29120D01*
X-60957Y-29114D01*
X-60918Y-29101D01*
X-60892Y-29094D01*
X-60885D01*
X-60951Y-29671D01*
X-61029Y-29698D01*
X-61102Y-29717D01*
X-61174Y-29730D01*
X-61233Y-29737D01*
X-61279Y-29744D01*
X-61318Y-29750D01*
X-61351D01*
X-61456Y-29744D01*
X-61554Y-29730D01*
X-61639Y-29704D01*
X-61712Y-29678D01*
X-61777Y-29652D01*
X-61817Y-29625D01*
X-61849Y-29612D01*
X-61856Y-29606D01*
X-61935Y-29547D01*
X-62007Y-29475D01*
X-62072Y-29403D01*
X-62125Y-29330D01*
X-62171Y-29265D01*
X-62210Y-29206D01*
X-62230Y-29173D01*
X-62236Y-29160D01*
X-62263Y-29114D01*
X-62289Y-29061D01*
X-62341Y-28937D01*
X-62400Y-28799D01*
X-62459Y-28661D01*
X-62505Y-28536D01*
X-62532Y-28477D01*
X-62545Y-28432D01*
X-62564Y-28392D01*
X-62577Y-28359D01*
X-62584Y-28340D01*
Y-28333D01*
X-63968Y-24620D01*
X-63352D01*
X-62571Y-26752D01*
X-62518Y-26903D01*
X-62466Y-27054D01*
X-62420Y-27192D01*
X-62381Y-27316D01*
X-62354Y-27421D01*
X-62341Y-27467D01*
X-62328Y-27507D01*
X-62322Y-27539D01*
X-62315Y-27559D01*
X-62309Y-27572D01*
Y-27579D01*
X-62263Y-27415D01*
X-62217Y-27257D01*
X-62171Y-27113D01*
X-62131Y-26988D01*
X-62099Y-26883D01*
X-62085Y-26838D01*
X-62072Y-26805D01*
X-62059Y-26772D01*
X-62053Y-26752D01*
X-62046Y-26739D01*
Y-26733D01*
X-61279Y-24620D01*
X-60623Y-24620D01*
X-62013Y-28274D01*
D02*
G37*
G36*
X-95135Y-23721D02*
Y-24620D01*
X-94676D01*
Y-25099D01*
X-95135D01*
Y-27205D01*
Y-27303D01*
X-95141Y-27395D01*
Y-27480D01*
X-95148Y-27553D01*
X-95154Y-27625D01*
X-95161Y-27684D01*
X-95168Y-27736D01*
X-95174Y-27782D01*
X-95187Y-27854D01*
X-95194Y-27900D01*
X-95207Y-27933D01*
Y-27940D01*
X-95240Y-27999D01*
X-95279Y-28051D01*
X-95325Y-28104D01*
X-95371Y-28143D01*
X-95410Y-28176D01*
X-95437Y-28195D01*
X-95463Y-28209D01*
X-95469Y-28215D01*
X-95542Y-28248D01*
X-95627Y-28274D01*
X-95712Y-28294D01*
X-95797Y-28307D01*
X-95869Y-28313D01*
X-95935Y-28320D01*
X-95988D01*
X-96152Y-28313D01*
X-96230Y-28300D01*
X-96302Y-28294D01*
X-96368Y-28281D01*
X-96414Y-28274D01*
X-96447Y-28268D01*
X-96460D01*
X-96375Y-27723D01*
X-96316Y-27730D01*
X-96263Y-27736D01*
X-96211D01*
X-96171Y-27743D01*
X-96099D01*
X-96007Y-27736D01*
X-95942Y-27723D01*
X-95915Y-27716D01*
X-95896Y-27710D01*
X-95889Y-27703D01*
X-95883D01*
X-95837Y-27664D01*
X-95804Y-27625D01*
X-95784Y-27599D01*
X-95778Y-27585D01*
X-95771Y-27546D01*
X-95764Y-27500D01*
X-95758Y-27441D01*
Y-27382D01*
X-95751Y-27329D01*
Y-27284D01*
Y-27251D01*
Y-27238D01*
Y-25099D01*
X-96375D01*
Y-24620D01*
X-95751D01*
Y-23348D01*
X-95135Y-23721D01*
D02*
G37*
G36*
X-53715Y-24548D02*
X-53584Y-24561D01*
X-53459Y-24587D01*
X-53341Y-24620D01*
X-53236Y-24660D01*
X-53131Y-24705D01*
X-53039Y-24751D01*
X-52954Y-24797D01*
X-52882Y-24843D01*
X-52816Y-24889D01*
X-52757Y-24935D01*
X-52711Y-24974D01*
X-52672Y-25007D01*
X-52646Y-25034D01*
X-52632Y-25047D01*
X-52626Y-25053D01*
X-52541Y-25152D01*
X-52469Y-25256D01*
X-52409Y-25375D01*
X-52350Y-25493D01*
X-52305Y-25611D01*
X-52272Y-25729D01*
X-52239Y-25847D01*
X-52213Y-25958D01*
X-52193Y-26063D01*
X-52180Y-26162D01*
X-52167Y-26254D01*
X-52160Y-26332D01*
Y-26391D01*
X-52154Y-26444D01*
Y-26470D01*
Y-26483D01*
X-52160Y-26647D01*
X-52173Y-26798D01*
X-52200Y-26936D01*
X-52226Y-27074D01*
X-52259Y-27192D01*
X-52298Y-27310D01*
X-52344Y-27408D01*
X-52390Y-27507D01*
X-52429Y-27585D01*
X-52475Y-27657D01*
X-52514Y-27716D01*
X-52547Y-27769D01*
X-52574Y-27808D01*
X-52600Y-27835D01*
X-52613Y-27854D01*
X-52619Y-27861D01*
X-52711Y-27946D01*
X-52810Y-28025D01*
X-52915Y-28090D01*
X-53020Y-28143D01*
X-53124Y-28195D01*
X-53229Y-28235D01*
X-53334Y-28268D01*
X-53433Y-28294D01*
X-53525Y-28313D01*
X-53616Y-28327D01*
X-53695Y-28340D01*
X-53761Y-28346D01*
X-53813D01*
X-53859Y-28353D01*
X-53892D01*
X-54010Y-28346D01*
X-54122Y-28340D01*
X-54325Y-28307D01*
X-54417Y-28281D01*
X-54502Y-28255D01*
X-54581Y-28228D01*
X-54653Y-28195D01*
X-54719Y-28169D01*
X-54771Y-28143D01*
X-54824Y-28117D01*
X-54863Y-28090D01*
X-54896Y-28071D01*
X-54915Y-28058D01*
X-54928Y-28045D01*
X-54935D01*
X-55073Y-27920D01*
X-55191Y-27776D01*
X-55289Y-27631D01*
X-55368Y-27494D01*
X-55421Y-27369D01*
X-55447Y-27310D01*
X-55460Y-27264D01*
X-55480Y-27224D01*
X-55486Y-27198D01*
X-55493Y-27179D01*
Y-27172D01*
X-54850Y-27087D01*
X-54797Y-27224D01*
X-54732Y-27343D01*
X-54666Y-27448D01*
X-54607Y-27526D01*
X-54555Y-27585D01*
X-54509Y-27631D01*
X-54482Y-27657D01*
X-54469Y-27664D01*
X-54378Y-27723D01*
X-54279Y-27769D01*
X-54181Y-27795D01*
X-54095Y-27821D01*
X-54010Y-27835D01*
X-53951Y-27841D01*
X-53892D01*
X-53807Y-27835D01*
X-53728Y-27828D01*
X-53577Y-27789D01*
X-53446Y-27743D01*
X-53334Y-27684D01*
X-53249Y-27625D01*
X-53177Y-27572D01*
X-53157Y-27553D01*
X-53138Y-27539D01*
X-53131Y-27533D01*
X-53124Y-27526D01*
X-53072Y-27461D01*
X-53026Y-27395D01*
X-52947Y-27251D01*
X-52888Y-27100D01*
X-52842Y-26949D01*
X-52816Y-26818D01*
X-52810Y-26759D01*
X-52803Y-26706D01*
X-52797Y-26667D01*
X-52790Y-26634D01*
Y-26614D01*
Y-26608D01*
X-55512D01*
X-55519Y-26536D01*
Y-26483D01*
Y-26457D01*
Y-26444D01*
X-55512Y-26280D01*
X-55499Y-26122D01*
X-55473Y-25978D01*
X-55447Y-25840D01*
X-55414Y-25716D01*
X-55375Y-25604D01*
X-55329Y-25499D01*
X-55289Y-25401D01*
X-55243Y-25316D01*
X-55198Y-25243D01*
X-55158Y-25184D01*
X-55125Y-25132D01*
X-55099Y-25093D01*
X-55073Y-25066D01*
X-55060Y-25047D01*
X-55053Y-25040D01*
X-54961Y-24955D01*
X-54870Y-24876D01*
X-54771Y-24811D01*
X-54666Y-24751D01*
X-54568Y-24705D01*
X-54469Y-24666D01*
X-54371Y-24627D01*
X-54279Y-24600D01*
X-54194Y-24581D01*
X-54109Y-24568D01*
X-54036Y-24555D01*
X-53977Y-24548D01*
X-53925Y-24542D01*
X-53853D01*
X-53715Y-24548D01*
D02*
G37*
G36*
X-32087Y-28274D02*
X-32756D01*
Y-26037D01*
X-33622D01*
X-33694Y-26044D01*
X-33759D01*
X-33812Y-26050D01*
X-33851Y-26057D01*
X-33878D01*
X-33891Y-26063D01*
X-33897D01*
X-34009Y-26103D01*
X-34061Y-26122D01*
X-34107Y-26149D01*
X-34146Y-26168D01*
X-34173Y-26188D01*
X-34192Y-26195D01*
X-34199Y-26201D01*
X-34258Y-26247D01*
X-34317Y-26293D01*
X-34376Y-26352D01*
X-34429Y-26411D01*
X-34475Y-26457D01*
X-34507Y-26503D01*
X-34534Y-26529D01*
X-34540Y-26542D01*
X-34619Y-26641D01*
X-34697Y-26752D01*
X-34776Y-26864D01*
X-34855Y-26975D01*
X-34920Y-27074D01*
X-34953Y-27120D01*
X-34980Y-27159D01*
X-34999Y-27185D01*
X-35012Y-27211D01*
X-35026Y-27224D01*
Y-27231D01*
X-35688Y-28274D01*
X-36528D01*
X-35655Y-26910D01*
X-35557Y-26765D01*
X-35458Y-26634D01*
X-35367Y-26516D01*
X-35281Y-26424D01*
X-35203Y-26346D01*
X-35150Y-26287D01*
X-35111Y-26254D01*
X-35104Y-26241D01*
X-35098D01*
X-35039Y-26195D01*
X-34980Y-26149D01*
X-34848Y-26063D01*
X-34789Y-26031D01*
X-34743Y-26004D01*
X-34711Y-25991D01*
X-34697Y-25985D01*
X-34829Y-25965D01*
X-34953Y-25939D01*
X-35065Y-25906D01*
X-35170Y-25873D01*
X-35268Y-25834D01*
X-35360Y-25795D01*
X-35439Y-25755D01*
X-35511Y-25716D01*
X-35570Y-25676D01*
X-35622Y-25637D01*
X-35668Y-25604D01*
X-35708Y-25578D01*
X-35734Y-25552D01*
X-35760Y-25532D01*
X-35767Y-25526D01*
X-35773Y-25519D01*
X-35832Y-25447D01*
X-35891Y-25375D01*
X-35937Y-25296D01*
X-35977Y-25224D01*
X-36036Y-25073D01*
X-36075Y-24928D01*
X-36101Y-24804D01*
X-36108Y-24751D01*
X-36114Y-24705D01*
X-36121Y-24666D01*
Y-24640D01*
Y-24620D01*
Y-24614D01*
X-36114Y-24463D01*
X-36088Y-24318D01*
X-36055Y-24187D01*
X-36016Y-24076D01*
X-35977Y-23984D01*
X-35944Y-23912D01*
X-35931Y-23886D01*
X-35918Y-23866D01*
X-35911Y-23859D01*
Y-23853D01*
X-35826Y-23735D01*
X-35734Y-23630D01*
X-35642Y-23544D01*
X-35550Y-23479D01*
X-35472Y-23426D01*
X-35406Y-23393D01*
X-35380Y-23380D01*
X-35360Y-23374D01*
X-35353Y-23367D01*
X-35347D01*
X-35281Y-23341D01*
X-35203Y-23321D01*
X-35039Y-23289D01*
X-34868Y-23262D01*
X-34704Y-23249D01*
X-34625Y-23243D01*
X-34553Y-23236D01*
X-34494D01*
X-34435Y-23230D01*
X-32087D01*
Y-28274D01*
D02*
G37*
G36*
X-57539Y-24548D02*
X-57467Y-24561D01*
X-57395Y-24581D01*
X-57336Y-24600D01*
X-57290Y-24627D01*
X-57251Y-24646D01*
X-57225Y-24660D01*
X-57218Y-24666D01*
X-57152Y-24725D01*
X-57080Y-24797D01*
X-57015Y-24883D01*
X-56956Y-24974D01*
X-56910Y-25053D01*
X-56864Y-25119D01*
X-56851Y-25145D01*
X-56837Y-25165D01*
X-56831Y-25178D01*
Y-24620D01*
X-56273D01*
Y-28274D01*
X-56890D01*
Y-26372D01*
X-56897Y-26227D01*
X-56903Y-26090D01*
X-56923Y-25972D01*
X-56942Y-25860D01*
X-56956Y-25775D01*
X-56975Y-25709D01*
X-56982Y-25683D01*
Y-25663D01*
X-56988Y-25657D01*
Y-25650D01*
X-57021Y-25571D01*
X-57054Y-25506D01*
X-57093Y-25447D01*
X-57133Y-25401D01*
X-57165Y-25361D01*
X-57192Y-25329D01*
X-57211Y-25316D01*
X-57218Y-25309D01*
X-57284Y-25270D01*
X-57343Y-25237D01*
X-57408Y-25217D01*
X-57461Y-25197D01*
X-57513Y-25191D01*
X-57552Y-25184D01*
X-57585D01*
X-57671Y-25191D01*
X-57756Y-25204D01*
X-57835Y-25224D01*
X-57900Y-25250D01*
X-57959Y-25276D01*
X-58005Y-25296D01*
X-58031Y-25309D01*
X-58044Y-25316D01*
X-58261Y-24745D01*
X-58136Y-24679D01*
X-58025Y-24627D01*
X-57913Y-24594D01*
X-57815Y-24568D01*
X-57736Y-24555D01*
X-57671Y-24542D01*
X-57618D01*
X-57539Y-24548D01*
D02*
G37*
G36*
X-59888D02*
X-59816Y-24561D01*
X-59744Y-24581D01*
X-59684Y-24600D01*
X-59639Y-24627D01*
X-59599Y-24646D01*
X-59573Y-24660D01*
X-59566Y-24666D01*
X-59501Y-24725D01*
X-59429Y-24797D01*
X-59363Y-24883D01*
X-59304Y-24974D01*
X-59258Y-25053D01*
X-59212Y-25119D01*
X-59199Y-25145D01*
X-59186Y-25165D01*
X-59179Y-25178D01*
Y-24620D01*
X-58622D01*
Y-28274D01*
X-59238D01*
Y-26372D01*
X-59245Y-26227D01*
X-59252Y-26090D01*
X-59271Y-25972D01*
X-59291Y-25860D01*
X-59304Y-25775D01*
X-59324Y-25709D01*
X-59330Y-25683D01*
Y-25663D01*
X-59337Y-25657D01*
Y-25650D01*
X-59370Y-25571D01*
X-59402Y-25506D01*
X-59442Y-25447D01*
X-59481Y-25401D01*
X-59514Y-25361D01*
X-59540Y-25329D01*
X-59560Y-25316D01*
X-59566Y-25309D01*
X-59632Y-25270D01*
X-59691Y-25237D01*
X-59757Y-25217D01*
X-59809Y-25197D01*
X-59862Y-25191D01*
X-59901Y-25184D01*
X-59934D01*
X-60019Y-25191D01*
X-60104Y-25204D01*
X-60183Y-25224D01*
X-60249Y-25250D01*
X-60308Y-25276D01*
X-60354Y-25296D01*
X-60380Y-25309D01*
X-60393Y-25316D01*
X-60610Y-24745D01*
X-60485Y-24679D01*
X-60373Y-24627D01*
X-60262Y-24594D01*
X-60163Y-24568D01*
X-60085Y-24555D01*
X-60019Y-24542D01*
X-59967D01*
X-59888Y-24548D01*
D02*
G37*
G36*
X-66533Y-28274D02*
X-67202D01*
Y-26227D01*
X-68488D01*
X-68678Y-26221D01*
X-68855Y-26208D01*
X-69019Y-26188D01*
X-69170Y-26155D01*
X-69301Y-26122D01*
X-69426Y-26083D01*
X-69531Y-26044D01*
X-69630Y-26004D01*
X-69708Y-25965D01*
X-69780Y-25919D01*
X-69839Y-25886D01*
X-69885Y-25853D01*
X-69918Y-25821D01*
X-69944Y-25801D01*
X-69958Y-25788D01*
X-69964Y-25781D01*
X-70036Y-25696D01*
X-70102Y-25604D01*
X-70154Y-25512D01*
X-70200Y-25420D01*
X-70246Y-25329D01*
X-70279Y-25243D01*
X-70325Y-25066D01*
X-70345Y-24994D01*
X-70358Y-24922D01*
X-70364Y-24856D01*
X-70371Y-24797D01*
X-70377Y-24751D01*
Y-24719D01*
Y-24699D01*
Y-24692D01*
X-70371Y-24555D01*
X-70351Y-24430D01*
X-70325Y-24312D01*
X-70299Y-24207D01*
X-70272Y-24122D01*
X-70246Y-24056D01*
X-70233Y-24036D01*
X-70226Y-24017D01*
X-70220Y-24010D01*
Y-24004D01*
X-70161Y-23892D01*
X-70095Y-23794D01*
X-70023Y-23708D01*
X-69958Y-23643D01*
X-69905Y-23590D01*
X-69853Y-23551D01*
X-69826Y-23525D01*
X-69813Y-23518D01*
X-69715Y-23459D01*
X-69610Y-23407D01*
X-69511Y-23367D01*
X-69413Y-23335D01*
X-69328Y-23308D01*
X-69256Y-23295D01*
X-69229Y-23289D01*
X-69216Y-23282D01*
X-69196D01*
X-69092Y-23262D01*
X-68967Y-23249D01*
X-68836Y-23243D01*
X-68718Y-23236D01*
X-68606Y-23230D01*
X-66533D01*
Y-28274D01*
D02*
G37*
G36*
X-71151D02*
X-71768D01*
Y-24620D01*
X-71151D01*
Y-28274D01*
D02*
G37*
G36*
X-74202D02*
X-74904D01*
X-75455Y-26746D01*
X-77567D01*
X-78151Y-28274D01*
X-78905D01*
X-76852Y-23230D01*
X-76124D01*
X-74202Y-28274D01*
D02*
G37*
G36*
X-79450D02*
X-80119D01*
Y-26227D01*
X-81405D01*
X-81595Y-26221D01*
X-81772Y-26208D01*
X-81936Y-26188D01*
X-82087Y-26155D01*
X-82218Y-26122D01*
X-82343Y-26083D01*
X-82448Y-26044D01*
X-82546Y-26004D01*
X-82625Y-25965D01*
X-82697Y-25919D01*
X-82756Y-25886D01*
X-82802Y-25853D01*
X-82835Y-25821D01*
X-82861Y-25801D01*
X-82874Y-25788D01*
X-82881Y-25781D01*
X-82953Y-25696D01*
X-83018Y-25604D01*
X-83071Y-25512D01*
X-83117Y-25420D01*
X-83163Y-25329D01*
X-83196Y-25243D01*
X-83241Y-25066D01*
X-83261Y-24994D01*
X-83274Y-24922D01*
X-83281Y-24856D01*
X-83287Y-24797D01*
X-83294Y-24751D01*
Y-24719D01*
Y-24699D01*
Y-24692D01*
X-83287Y-24555D01*
X-83268Y-24430D01*
X-83241Y-24312D01*
X-83215Y-24207D01*
X-83189Y-24122D01*
X-83163Y-24056D01*
X-83150Y-24036D01*
X-83143Y-24017D01*
X-83136Y-24010D01*
Y-24004D01*
X-83078Y-23892D01*
X-83012Y-23794D01*
X-82940Y-23708D01*
X-82874Y-23643D01*
X-82822Y-23590D01*
X-82769Y-23551D01*
X-82743Y-23525D01*
X-82730Y-23518D01*
X-82631Y-23459D01*
X-82526Y-23407D01*
X-82428Y-23367D01*
X-82330Y-23335D01*
X-82244Y-23308D01*
X-82172Y-23295D01*
X-82146Y-23289D01*
X-82133Y-23282D01*
X-82113D01*
X-82008Y-23262D01*
X-81884Y-23249D01*
X-81752Y-23243D01*
X-81634Y-23236D01*
X-81523Y-23230D01*
X-79450D01*
Y-28274D01*
D02*
G37*
G36*
X-42005Y-24555D02*
X-41914Y-24568D01*
X-41835Y-24581D01*
X-41763Y-24594D01*
X-41717Y-24607D01*
X-41684Y-24614D01*
X-41671Y-24620D01*
X-41585Y-24646D01*
X-41507Y-24679D01*
X-41435Y-24705D01*
X-41382Y-24738D01*
X-41336Y-24758D01*
X-41303Y-24778D01*
X-41284Y-24791D01*
X-41277Y-24797D01*
X-41212Y-24850D01*
X-41153Y-24909D01*
X-41100Y-24968D01*
X-41054Y-25020D01*
X-41021Y-25073D01*
X-40995Y-25112D01*
X-40982Y-25139D01*
X-40975Y-25145D01*
X-40936Y-25224D01*
X-40910Y-25302D01*
X-40890Y-25381D01*
X-40877Y-25447D01*
X-40870Y-25512D01*
X-40864Y-25558D01*
Y-25585D01*
Y-25598D01*
X-40870Y-25696D01*
X-40884Y-25788D01*
X-40903Y-25873D01*
X-40929Y-25945D01*
X-40956Y-26004D01*
X-40975Y-26050D01*
X-40988Y-26076D01*
X-40995Y-26090D01*
X-41054Y-26168D01*
X-41113Y-26234D01*
X-41185Y-26293D01*
X-41244Y-26339D01*
X-41303Y-26378D01*
X-41349Y-26405D01*
X-41382Y-26424D01*
X-41395Y-26431D01*
X-41448Y-26457D01*
X-41513Y-26477D01*
X-41579Y-26503D01*
X-41651Y-26529D01*
X-41809Y-26582D01*
X-41966Y-26628D01*
X-42110Y-26667D01*
X-42176Y-26687D01*
X-42228Y-26700D01*
X-42274Y-26713D01*
X-42307Y-26726D01*
X-42333Y-26733D01*
X-42340D01*
X-42432Y-26752D01*
X-42510Y-26778D01*
X-42589Y-26798D01*
X-42655Y-26818D01*
X-42714Y-26838D01*
X-42766Y-26851D01*
X-42806Y-26864D01*
X-42845Y-26883D01*
X-42911Y-26903D01*
X-42950Y-26923D01*
X-42970Y-26929D01*
X-42976Y-26936D01*
X-43035Y-26988D01*
X-43081Y-27041D01*
X-43114Y-27093D01*
X-43140Y-27146D01*
X-43153Y-27192D01*
X-43160Y-27231D01*
Y-27257D01*
Y-27264D01*
X-43153Y-27349D01*
X-43127Y-27428D01*
X-43094Y-27494D01*
X-43055Y-27553D01*
X-43016Y-27605D01*
X-42983Y-27638D01*
X-42957Y-27664D01*
X-42950Y-27671D01*
X-42865Y-27730D01*
X-42760Y-27769D01*
X-42655Y-27802D01*
X-42556Y-27821D01*
X-42458Y-27835D01*
X-42386Y-27841D01*
X-42314D01*
X-42163Y-27835D01*
X-42032Y-27808D01*
X-41920Y-27782D01*
X-41822Y-27743D01*
X-41750Y-27710D01*
X-41697Y-27677D01*
X-41664Y-27657D01*
X-41651Y-27651D01*
X-41572Y-27572D01*
X-41507Y-27480D01*
X-41461Y-27389D01*
X-41421Y-27297D01*
X-41395Y-27211D01*
X-41382Y-27146D01*
X-41376Y-27120D01*
X-41369Y-27100D01*
Y-27093D01*
Y-27087D01*
X-40759Y-27185D01*
X-40779Y-27290D01*
X-40805Y-27389D01*
X-40838Y-27480D01*
X-40877Y-27566D01*
X-40910Y-27644D01*
X-40949Y-27716D01*
X-40995Y-27782D01*
X-41034Y-27841D01*
X-41074Y-27894D01*
X-41107Y-27940D01*
X-41139Y-27979D01*
X-41172Y-28012D01*
X-41199Y-28031D01*
X-41218Y-28051D01*
X-41225Y-28058D01*
X-41231Y-28064D01*
X-41303Y-28117D01*
X-41389Y-28156D01*
X-41559Y-28228D01*
X-41743Y-28281D01*
X-41914Y-28313D01*
X-41999Y-28327D01*
X-42077Y-28340D01*
X-42143Y-28346D01*
X-42202D01*
X-42255Y-28353D01*
X-42320D01*
X-42478Y-28346D01*
X-42622Y-28333D01*
X-42753Y-28307D01*
X-42865Y-28281D01*
X-42957Y-28255D01*
X-43029Y-28228D01*
X-43055Y-28222D01*
X-43075Y-28215D01*
X-43081Y-28209D01*
X-43088D01*
X-43206Y-28150D01*
X-43311Y-28077D01*
X-43403Y-28012D01*
X-43481Y-27940D01*
X-43534Y-27880D01*
X-43580Y-27835D01*
X-43606Y-27802D01*
X-43613Y-27789D01*
X-43672Y-27684D01*
X-43718Y-27579D01*
X-43750Y-27480D01*
X-43777Y-27389D01*
X-43790Y-27310D01*
X-43796Y-27251D01*
Y-27211D01*
Y-27205D01*
Y-27198D01*
X-43790Y-27087D01*
X-43770Y-26982D01*
X-43750Y-26897D01*
X-43724Y-26818D01*
X-43691Y-26759D01*
X-43672Y-26713D01*
X-43652Y-26680D01*
X-43645Y-26673D01*
X-43586Y-26595D01*
X-43514Y-26529D01*
X-43448Y-26477D01*
X-43383Y-26431D01*
X-43324Y-26391D01*
X-43278Y-26365D01*
X-43245Y-26352D01*
X-43232Y-26346D01*
X-43180Y-26326D01*
X-43121Y-26300D01*
X-42983Y-26254D01*
X-42832Y-26208D01*
X-42681Y-26162D01*
X-42543Y-26122D01*
X-42478Y-26109D01*
X-42425Y-26090D01*
X-42386Y-26076D01*
X-42346Y-26070D01*
X-42327Y-26063D01*
X-42320D01*
X-42241Y-26044D01*
X-42169Y-26017D01*
X-42104Y-26004D01*
X-42045Y-25985D01*
X-41992Y-25972D01*
X-41946Y-25958D01*
X-41874Y-25939D01*
X-41822Y-25926D01*
X-41789Y-25912D01*
X-41776Y-25906D01*
X-41769D01*
X-41717Y-25880D01*
X-41664Y-25853D01*
X-41625Y-25827D01*
X-41592Y-25801D01*
X-41566Y-25775D01*
X-41546Y-25755D01*
X-41540Y-25749D01*
X-41533Y-25742D01*
X-41507Y-25703D01*
X-41494Y-25663D01*
X-41467Y-25598D01*
Y-25565D01*
X-41461Y-25545D01*
Y-25532D01*
Y-25526D01*
X-41467Y-25453D01*
X-41487Y-25394D01*
X-41520Y-25335D01*
X-41553Y-25289D01*
X-41579Y-25250D01*
X-41612Y-25224D01*
X-41631Y-25204D01*
X-41638Y-25197D01*
X-41717Y-25152D01*
X-41809Y-25112D01*
X-41914Y-25086D01*
X-42012Y-25073D01*
X-42104Y-25060D01*
X-42176Y-25053D01*
X-42248D01*
X-42379Y-25060D01*
X-42491Y-25079D01*
X-42589Y-25106D01*
X-42668Y-25132D01*
X-42733Y-25165D01*
X-42773Y-25191D01*
X-42806Y-25211D01*
X-42812Y-25217D01*
X-42878Y-25283D01*
X-42930Y-25348D01*
X-42976Y-25420D01*
X-43009Y-25493D01*
X-43029Y-25552D01*
X-43042Y-25604D01*
X-43055Y-25637D01*
Y-25650D01*
X-43658Y-25565D01*
X-43632Y-25440D01*
X-43599Y-25329D01*
X-43567Y-25237D01*
X-43527Y-25158D01*
X-43494Y-25093D01*
X-43468Y-25047D01*
X-43448Y-25014D01*
X-43442Y-25007D01*
X-43376Y-24928D01*
X-43298Y-24863D01*
X-43219Y-24804D01*
X-43140Y-24758D01*
X-43068Y-24719D01*
X-43009Y-24686D01*
X-42970Y-24673D01*
X-42963Y-24666D01*
X-42957D01*
X-42832Y-24627D01*
X-42707Y-24594D01*
X-42576Y-24574D01*
X-42465Y-24555D01*
X-42360Y-24548D01*
X-42320D01*
X-42281Y-24542D01*
X-42104D01*
X-42005Y-24555D01*
D02*
G37*
G36*
X-46027Y-24548D02*
X-45908Y-24561D01*
X-45804Y-24587D01*
X-45712Y-24614D01*
X-45640Y-24640D01*
X-45587Y-24666D01*
X-45554Y-24679D01*
X-45541Y-24686D01*
X-45449Y-24745D01*
X-45364Y-24811D01*
X-45292Y-24876D01*
X-45226Y-24942D01*
X-45174Y-25007D01*
X-45128Y-25053D01*
X-45102Y-25086D01*
X-45095Y-25099D01*
Y-24620D01*
X-44531D01*
Y-29671D01*
X-45148D01*
Y-27894D01*
X-45213Y-27966D01*
X-45279Y-28025D01*
X-45344Y-28084D01*
X-45410Y-28130D01*
X-45463Y-28169D01*
X-45508Y-28195D01*
X-45535Y-28215D01*
X-45548Y-28222D01*
X-45646Y-28268D01*
X-45738Y-28300D01*
X-45836Y-28320D01*
X-45922Y-28333D01*
X-45994Y-28346D01*
X-46053Y-28353D01*
X-46105D01*
X-46263Y-28340D01*
X-46414Y-28313D01*
X-46551Y-28281D01*
X-46670Y-28235D01*
X-46768Y-28189D01*
X-46814Y-28169D01*
X-46847Y-28156D01*
X-46873Y-28136D01*
X-46892Y-28130D01*
X-46906Y-28117D01*
X-46912D01*
X-47050Y-28018D01*
X-47168Y-27913D01*
X-47266Y-27795D01*
X-47352Y-27684D01*
X-47417Y-27585D01*
X-47444Y-27546D01*
X-47463Y-27507D01*
X-47483Y-27474D01*
X-47496Y-27454D01*
X-47503Y-27441D01*
Y-27434D01*
X-47568Y-27264D01*
X-47621Y-27087D01*
X-47653Y-26916D01*
X-47680Y-26759D01*
X-47686Y-26687D01*
X-47693Y-26628D01*
X-47699Y-26568D01*
X-47706Y-26516D01*
Y-26477D01*
Y-26450D01*
Y-26431D01*
Y-26424D01*
X-47699Y-26234D01*
X-47680Y-26050D01*
X-47647Y-25893D01*
X-47614Y-25749D01*
X-47594Y-25690D01*
X-47581Y-25631D01*
X-47568Y-25585D01*
X-47548Y-25545D01*
X-47542Y-25512D01*
X-47529Y-25486D01*
X-47522Y-25473D01*
Y-25466D01*
X-47444Y-25309D01*
X-47358Y-25171D01*
X-47266Y-25060D01*
X-47181Y-24961D01*
X-47102Y-24883D01*
X-47037Y-24830D01*
X-47011Y-24811D01*
X-46991Y-24797D01*
X-46984Y-24784D01*
X-46978D01*
X-46840Y-24705D01*
X-46702Y-24646D01*
X-46558Y-24600D01*
X-46433Y-24574D01*
X-46322Y-24555D01*
X-46269Y-24548D01*
X-46230D01*
X-46197Y-24542D01*
X-46151D01*
X-46027Y-24548D01*
D02*
G37*
G36*
X-39283Y-30772D02*
X-39053Y-30805D01*
X-38843Y-30858D01*
X-38752Y-30884D01*
X-38660Y-30910D01*
X-38581Y-30943D01*
X-38509Y-30969D01*
X-38450Y-30995D01*
X-38397Y-31021D01*
X-38358Y-31041D01*
X-38325Y-31054D01*
X-38306Y-31061D01*
X-38299Y-31067D01*
X-38201Y-31126D01*
X-38102Y-31192D01*
X-37932Y-31336D01*
X-37781Y-31481D01*
X-37663Y-31625D01*
X-37610Y-31697D01*
X-37564Y-31756D01*
X-37525Y-31815D01*
X-37499Y-31861D01*
X-37472Y-31901D01*
X-37453Y-31933D01*
X-37446Y-31953D01*
X-37440Y-31960D01*
X-37387Y-32071D01*
X-37341Y-32189D01*
X-37269Y-32419D01*
X-37216Y-32648D01*
X-37197Y-32760D01*
X-37184Y-32865D01*
X-37171Y-32963D01*
X-37157Y-33048D01*
X-37151Y-33127D01*
Y-33199D01*
X-37144Y-33252D01*
Y-33298D01*
Y-33324D01*
Y-33331D01*
X-37157Y-33593D01*
X-37184Y-33849D01*
X-37203Y-33960D01*
X-37230Y-34072D01*
X-37249Y-34177D01*
X-37276Y-34275D01*
X-37302Y-34367D01*
X-37321Y-34446D01*
X-37348Y-34511D01*
X-37367Y-34570D01*
X-37380Y-34616D01*
X-37394Y-34656D01*
X-37407Y-34675D01*
Y-34682D01*
X-37459Y-34793D01*
X-37518Y-34905D01*
X-37577Y-35003D01*
X-37643Y-35095D01*
X-37709Y-35187D01*
X-37774Y-35266D01*
X-37833Y-35338D01*
X-37899Y-35397D01*
X-37958Y-35456D01*
X-38010Y-35508D01*
X-38063Y-35548D01*
X-38102Y-35581D01*
X-38142Y-35614D01*
X-38168Y-35633D01*
X-38181Y-35640D01*
X-38187Y-35646D01*
X-38286Y-35705D01*
X-38391Y-35751D01*
X-38502Y-35797D01*
X-38614Y-35836D01*
X-38837Y-35895D01*
X-39047Y-35935D01*
X-39145Y-35948D01*
X-39230Y-35955D01*
X-39316Y-35961D01*
X-39381Y-35968D01*
X-39440Y-35974D01*
X-39519D01*
X-39663Y-35968D01*
X-39801Y-35955D01*
X-39932Y-35935D01*
X-40057Y-35909D01*
X-40175Y-35876D01*
X-40287Y-35836D01*
X-40385Y-35804D01*
X-40483Y-35758D01*
X-40562Y-35718D01*
X-40634Y-35686D01*
X-40700Y-35646D01*
X-40752Y-35614D01*
X-40798Y-35587D01*
X-40824Y-35568D01*
X-40844Y-35554D01*
X-40851Y-35548D01*
X-40949Y-35463D01*
X-41041Y-35371D01*
X-41126Y-35272D01*
X-41199Y-35167D01*
X-41271Y-35062D01*
X-41330Y-34964D01*
X-41389Y-34859D01*
X-41435Y-34761D01*
X-41480Y-34662D01*
X-41513Y-34577D01*
X-41546Y-34498D01*
X-41572Y-34433D01*
X-41585Y-34374D01*
X-41599Y-34328D01*
X-41612Y-34301D01*
Y-34295D01*
X-40943Y-34124D01*
X-40910Y-34242D01*
X-40877Y-34347D01*
X-40838Y-34446D01*
X-40798Y-34544D01*
X-40752Y-34629D01*
X-40713Y-34708D01*
X-40667Y-34780D01*
X-40621Y-34839D01*
X-40582Y-34898D01*
X-40543Y-34944D01*
X-40503Y-34990D01*
X-40477Y-35023D01*
X-40451Y-35049D01*
X-40431Y-35069D01*
X-40418Y-35076D01*
X-40411Y-35082D01*
X-40339Y-35141D01*
X-40260Y-35187D01*
X-40182Y-35233D01*
X-40096Y-35266D01*
X-39939Y-35325D01*
X-39788Y-35364D01*
X-39722Y-35377D01*
X-39657Y-35384D01*
X-39604Y-35390D01*
X-39552Y-35397D01*
X-39513Y-35403D01*
X-39460D01*
X-39290Y-35390D01*
X-39132Y-35364D01*
X-38988Y-35331D01*
X-38857Y-35285D01*
X-38752Y-35239D01*
X-38706Y-35220D01*
X-38673Y-35207D01*
X-38640Y-35187D01*
X-38620Y-35181D01*
X-38607Y-35167D01*
X-38601D01*
X-38463Y-35069D01*
X-38345Y-34958D01*
X-38246Y-34839D01*
X-38161Y-34721D01*
X-38096Y-34616D01*
X-38076Y-34570D01*
X-38056Y-34531D01*
X-38037Y-34498D01*
X-38023Y-34472D01*
X-38017Y-34459D01*
Y-34452D01*
X-37958Y-34269D01*
X-37912Y-34072D01*
X-37879Y-33888D01*
X-37859Y-33711D01*
X-37846Y-33632D01*
Y-33560D01*
X-37840Y-33495D01*
X-37833Y-33435D01*
Y-33390D01*
Y-33357D01*
Y-33337D01*
Y-33331D01*
X-37840Y-33147D01*
X-37859Y-32970D01*
X-37886Y-32806D01*
X-37912Y-32655D01*
X-37925Y-32596D01*
X-37938Y-32537D01*
X-37951Y-32484D01*
X-37964Y-32438D01*
X-37977Y-32406D01*
X-37984Y-32379D01*
X-37991Y-32366D01*
Y-32360D01*
X-38056Y-32189D01*
X-38142Y-32045D01*
X-38233Y-31914D01*
X-38325Y-31809D01*
X-38404Y-31723D01*
X-38469Y-31664D01*
X-38496Y-31638D01*
X-38515Y-31625D01*
X-38528Y-31612D01*
X-38535D01*
X-38614Y-31559D01*
X-38693Y-31520D01*
X-38857Y-31448D01*
X-39020Y-31395D01*
X-39171Y-31363D01*
X-39244Y-31356D01*
X-39309Y-31343D01*
X-39368Y-31336D01*
X-39414D01*
X-39454Y-31330D01*
X-39513D01*
X-39696Y-31343D01*
X-39860Y-31369D01*
X-40005Y-31409D01*
X-40129Y-31454D01*
X-40228Y-31507D01*
X-40267Y-31527D01*
X-40300Y-31546D01*
X-40326Y-31559D01*
X-40346Y-31572D01*
X-40352Y-31586D01*
X-40359D01*
X-40418Y-31638D01*
X-40477Y-31691D01*
X-40582Y-31815D01*
X-40667Y-31946D01*
X-40739Y-32078D01*
X-40798Y-32196D01*
X-40818Y-32248D01*
X-40838Y-32294D01*
X-40851Y-32333D01*
X-40864Y-32360D01*
X-40870Y-32379D01*
Y-32386D01*
X-41526Y-32228D01*
X-41487Y-32104D01*
X-41435Y-31979D01*
X-41382Y-31868D01*
X-41323Y-31763D01*
X-41264Y-31671D01*
X-41205Y-31579D01*
X-41146Y-31500D01*
X-41087Y-31428D01*
X-41028Y-31363D01*
X-40975Y-31304D01*
X-40923Y-31258D01*
X-40884Y-31218D01*
X-40851Y-31185D01*
X-40818Y-31166D01*
X-40805Y-31153D01*
X-40798Y-31146D01*
X-40700Y-31080D01*
X-40595Y-31015D01*
X-40490Y-30969D01*
X-40385Y-30923D01*
X-40273Y-30884D01*
X-40168Y-30851D01*
X-39972Y-30805D01*
X-39880Y-30792D01*
X-39795Y-30779D01*
X-39716Y-30772D01*
X-39650Y-30766D01*
X-39598Y-30759D01*
X-39401D01*
X-39283Y-30772D01*
D02*
G37*
G36*
X-32093Y-35889D02*
X-32795D01*
X-33346Y-34361D01*
X-35458D01*
X-36042Y-35889D01*
X-36797D01*
X-34743Y-30844D01*
X-34015D01*
X-32093Y-35889D01*
D02*
G37*
G36*
X-42465D02*
X-43134D01*
Y-33599D01*
X-45502D01*
Y-33003D01*
X-43134D01*
Y-31441D01*
X-45869D01*
Y-30844D01*
X-42465D01*
Y-35889D01*
D02*
G37*
G36*
X-46742D02*
X-47411D01*
Y-33652D01*
X-48277D01*
X-48349Y-33659D01*
X-48414D01*
X-48467Y-33665D01*
X-48506Y-33672D01*
X-48533D01*
X-48546Y-33678D01*
X-48552D01*
X-48664Y-33718D01*
X-48716Y-33737D01*
X-48762Y-33764D01*
X-48801Y-33783D01*
X-48828Y-33803D01*
X-48847Y-33810D01*
X-48854Y-33816D01*
X-48913Y-33862D01*
X-48972Y-33908D01*
X-49031Y-33967D01*
X-49084Y-34026D01*
X-49130Y-34072D01*
X-49162Y-34118D01*
X-49189Y-34144D01*
X-49195Y-34157D01*
X-49274Y-34255D01*
X-49352Y-34367D01*
X-49431Y-34479D01*
X-49510Y-34590D01*
X-49576Y-34688D01*
X-49608Y-34734D01*
X-49635Y-34774D01*
X-49654Y-34800D01*
X-49667Y-34826D01*
X-49681Y-34839D01*
Y-34846D01*
X-50343Y-35889D01*
X-51183D01*
X-50310Y-34525D01*
X-50212Y-34380D01*
X-50113Y-34249D01*
X-50022Y-34131D01*
X-49936Y-34039D01*
X-49858Y-33960D01*
X-49805Y-33901D01*
X-49766Y-33869D01*
X-49759Y-33855D01*
X-49753D01*
X-49694Y-33810D01*
X-49635Y-33764D01*
X-49503Y-33678D01*
X-49444Y-33645D01*
X-49398Y-33619D01*
X-49366Y-33606D01*
X-49352Y-33599D01*
X-49484Y-33580D01*
X-49608Y-33554D01*
X-49720Y-33521D01*
X-49825Y-33488D01*
X-49923Y-33449D01*
X-50015Y-33409D01*
X-50094Y-33370D01*
X-50166Y-33331D01*
X-50225Y-33291D01*
X-50278Y-33252D01*
X-50323Y-33219D01*
X-50363Y-33193D01*
X-50389Y-33167D01*
X-50415Y-33147D01*
X-50422Y-33140D01*
X-50428Y-33134D01*
X-50487Y-33062D01*
X-50546Y-32989D01*
X-50592Y-32911D01*
X-50632Y-32839D01*
X-50691Y-32688D01*
X-50730Y-32543D01*
X-50756Y-32419D01*
X-50763Y-32366D01*
X-50770Y-32320D01*
X-50776Y-32281D01*
Y-32255D01*
Y-32235D01*
Y-32228D01*
X-50770Y-32078D01*
X-50743Y-31933D01*
X-50710Y-31802D01*
X-50671Y-31691D01*
X-50632Y-31599D01*
X-50599Y-31527D01*
X-50586Y-31500D01*
X-50573Y-31481D01*
X-50566Y-31474D01*
Y-31468D01*
X-50481Y-31350D01*
X-50389Y-31245D01*
X-50297Y-31159D01*
X-50205Y-31094D01*
X-50127Y-31041D01*
X-50061Y-31008D01*
X-50035Y-30995D01*
X-50015Y-30989D01*
X-50008Y-30982D01*
X-50002D01*
X-49936Y-30956D01*
X-49858Y-30936D01*
X-49694Y-30903D01*
X-49523Y-30877D01*
X-49359Y-30864D01*
X-49280Y-30858D01*
X-49208Y-30851D01*
X-49149D01*
X-49090Y-30844D01*
X-46742D01*
Y-35889D01*
D02*
G37*
G36*
X-45692Y-37777D02*
X-46309D01*
Y-37069D01*
X-45692D01*
Y-37777D01*
D02*
G37*
G36*
X-53131D02*
X-53748D01*
Y-37069D01*
X-53131D01*
Y-37777D01*
D02*
G37*
G36*
X-82284Y-37055D02*
X-82159Y-37062D01*
X-82041Y-37082D01*
X-81936Y-37108D01*
X-81831Y-37134D01*
X-81739Y-37167D01*
X-81654Y-37200D01*
X-81575Y-37233D01*
X-81503Y-37272D01*
X-81444Y-37305D01*
X-81392Y-37337D01*
X-81346Y-37364D01*
X-81313Y-37390D01*
X-81287Y-37410D01*
X-81274Y-37416D01*
X-81267Y-37423D01*
X-81188Y-37495D01*
X-81123Y-37574D01*
X-81064Y-37659D01*
X-81011Y-37751D01*
X-80965Y-37836D01*
X-80926Y-37928D01*
X-80867Y-38105D01*
X-80840Y-38184D01*
X-80821Y-38262D01*
X-80808Y-38328D01*
X-80795Y-38387D01*
X-80788Y-38440D01*
Y-38472D01*
X-80782Y-38499D01*
Y-38505D01*
X-81418Y-38571D01*
X-81431Y-38400D01*
X-81457Y-38256D01*
X-81503Y-38131D01*
X-81556Y-38020D01*
X-81602Y-37941D01*
X-81647Y-37875D01*
X-81674Y-37843D01*
X-81687Y-37829D01*
X-81792Y-37738D01*
X-81910Y-37672D01*
X-82034Y-37626D01*
X-82146Y-37593D01*
X-82244Y-37574D01*
X-82290Y-37567D01*
X-82330D01*
X-82356Y-37560D01*
X-82402D01*
X-82553Y-37574D01*
X-82690Y-37600D01*
X-82809Y-37639D01*
X-82907Y-37685D01*
X-82986Y-37738D01*
X-83045Y-37777D01*
X-83078Y-37803D01*
X-83091Y-37816D01*
X-83182Y-37915D01*
X-83248Y-38020D01*
X-83294Y-38118D01*
X-83327Y-38217D01*
X-83346Y-38302D01*
X-83353Y-38374D01*
X-83360Y-38400D01*
Y-38413D01*
Y-38426D01*
Y-38433D01*
Y-38499D01*
X-83346Y-38564D01*
X-83314Y-38702D01*
X-83268Y-38827D01*
X-83215Y-38938D01*
X-83156Y-39037D01*
X-83130Y-39076D01*
X-83110Y-39115D01*
X-83091Y-39141D01*
X-83078Y-39161D01*
X-83071Y-39174D01*
X-83064Y-39181D01*
X-83005Y-39259D01*
X-82933Y-39338D01*
X-82854Y-39423D01*
X-82769Y-39515D01*
X-82586Y-39693D01*
X-82402Y-39863D01*
X-82316Y-39942D01*
X-82231Y-40014D01*
X-82152Y-40080D01*
X-82087Y-40139D01*
X-82034Y-40185D01*
X-81989Y-40217D01*
X-81962Y-40244D01*
X-81956Y-40250D01*
X-81766Y-40407D01*
X-81602Y-40552D01*
X-81464Y-40683D01*
X-81352Y-40795D01*
X-81260Y-40886D01*
X-81195Y-40959D01*
X-81175Y-40985D01*
X-81155Y-41004D01*
X-81149Y-41011D01*
X-81142Y-41018D01*
X-81044Y-41142D01*
X-80959Y-41260D01*
X-80893Y-41372D01*
X-80834Y-41477D01*
X-80788Y-41562D01*
X-80762Y-41628D01*
X-80749Y-41654D01*
X-80742Y-41674D01*
X-80736Y-41680D01*
Y-41687D01*
X-80709Y-41765D01*
X-80690Y-41838D01*
X-80677Y-41910D01*
X-80670Y-41975D01*
X-80663Y-42034D01*
Y-42074D01*
Y-42100D01*
Y-42113D01*
X-84002D01*
Y-41516D01*
X-81523D01*
X-81608Y-41398D01*
X-81654Y-41339D01*
X-81693Y-41293D01*
X-81733Y-41247D01*
X-81759Y-41214D01*
X-81779Y-41195D01*
X-81785Y-41188D01*
X-81818Y-41155D01*
X-81864Y-41109D01*
X-81910Y-41063D01*
X-81962Y-41018D01*
X-82080Y-40913D01*
X-82205Y-40808D01*
X-82316Y-40709D01*
X-82369Y-40663D01*
X-82408Y-40624D01*
X-82448Y-40598D01*
X-82474Y-40571D01*
X-82494Y-40558D01*
X-82500Y-40552D01*
X-82618Y-40447D01*
X-82736Y-40349D01*
X-82835Y-40263D01*
X-82933Y-40178D01*
X-83018Y-40099D01*
X-83097Y-40020D01*
X-83169Y-39955D01*
X-83228Y-39896D01*
X-83287Y-39843D01*
X-83333Y-39797D01*
X-83373Y-39758D01*
X-83406Y-39725D01*
X-83425Y-39699D01*
X-83445Y-39679D01*
X-83458Y-39673D01*
Y-39666D01*
X-83556Y-39548D01*
X-83642Y-39430D01*
X-83714Y-39325D01*
X-83773Y-39233D01*
X-83819Y-39161D01*
X-83845Y-39102D01*
X-83865Y-39063D01*
X-83871Y-39050D01*
X-83911Y-38938D01*
X-83943Y-38833D01*
X-83963Y-38728D01*
X-83983Y-38643D01*
X-83989Y-38564D01*
X-83996Y-38505D01*
Y-38466D01*
Y-38453D01*
X-83989Y-38341D01*
X-83976Y-38236D01*
X-83956Y-38138D01*
X-83930Y-38046D01*
X-83858Y-37875D01*
X-83825Y-37797D01*
X-83786Y-37731D01*
X-83740Y-37665D01*
X-83707Y-37613D01*
X-83668Y-37567D01*
X-83635Y-37528D01*
X-83609Y-37495D01*
X-83589Y-37475D01*
X-83576Y-37462D01*
X-83570Y-37455D01*
X-83484Y-37383D01*
X-83399Y-37324D01*
X-83307Y-37265D01*
X-83209Y-37219D01*
X-83110Y-37180D01*
X-83018Y-37147D01*
X-82835Y-37101D01*
X-82749Y-37082D01*
X-82671Y-37069D01*
X-82599Y-37062D01*
X-82533Y-37055D01*
X-82487Y-37049D01*
X-82415D01*
X-82284Y-37055D01*
D02*
G37*
G36*
X-90116D02*
X-89992Y-37062D01*
X-89874Y-37082D01*
X-89769Y-37108D01*
X-89664Y-37134D01*
X-89572Y-37167D01*
X-89487Y-37200D01*
X-89408Y-37233D01*
X-89336Y-37272D01*
X-89277Y-37305D01*
X-89224Y-37337D01*
X-89178Y-37364D01*
X-89145Y-37390D01*
X-89119Y-37410D01*
X-89106Y-37416D01*
X-89100Y-37423D01*
X-89021Y-37495D01*
X-88955Y-37574D01*
X-88896Y-37659D01*
X-88844Y-37751D01*
X-88798Y-37836D01*
X-88758Y-37928D01*
X-88699Y-38105D01*
X-88673Y-38184D01*
X-88653Y-38262D01*
X-88640Y-38328D01*
X-88627Y-38387D01*
X-88621Y-38440D01*
Y-38472D01*
X-88614Y-38499D01*
Y-38505D01*
X-89250Y-38571D01*
X-89264Y-38400D01*
X-89290Y-38256D01*
X-89336Y-38131D01*
X-89388Y-38020D01*
X-89434Y-37941D01*
X-89480Y-37875D01*
X-89506Y-37843D01*
X-89519Y-37829D01*
X-89624Y-37738D01*
X-89742Y-37672D01*
X-89867Y-37626D01*
X-89979Y-37593D01*
X-90077Y-37574D01*
X-90123Y-37567D01*
X-90162D01*
X-90188Y-37560D01*
X-90235D01*
X-90385Y-37574D01*
X-90523Y-37600D01*
X-90641Y-37639D01*
X-90740Y-37685D01*
X-90818Y-37738D01*
X-90877Y-37777D01*
X-90910Y-37803D01*
X-90923Y-37816D01*
X-91015Y-37915D01*
X-91081Y-38020D01*
X-91127Y-38118D01*
X-91159Y-38217D01*
X-91179Y-38302D01*
X-91186Y-38374D01*
X-91192Y-38400D01*
Y-38413D01*
Y-38426D01*
Y-38433D01*
Y-38499D01*
X-91179Y-38564D01*
X-91146Y-38702D01*
X-91100Y-38827D01*
X-91048Y-38938D01*
X-90989Y-39037D01*
X-90963Y-39076D01*
X-90943Y-39115D01*
X-90923Y-39141D01*
X-90910Y-39161D01*
X-90904Y-39174D01*
X-90897Y-39181D01*
X-90838Y-39259D01*
X-90766Y-39338D01*
X-90687Y-39423D01*
X-90602Y-39515D01*
X-90418Y-39693D01*
X-90235Y-39863D01*
X-90149Y-39942D01*
X-90064Y-40014D01*
X-89985Y-40080D01*
X-89920Y-40139D01*
X-89867Y-40185D01*
X-89821Y-40217D01*
X-89795Y-40244D01*
X-89788Y-40250D01*
X-89598Y-40407D01*
X-89434Y-40552D01*
X-89296Y-40683D01*
X-89185Y-40795D01*
X-89093Y-40886D01*
X-89027Y-40959D01*
X-89008Y-40985D01*
X-88988Y-41004D01*
X-88981Y-41011D01*
X-88975Y-41018D01*
X-88876Y-41142D01*
X-88791Y-41260D01*
X-88726Y-41372D01*
X-88667Y-41477D01*
X-88621Y-41562D01*
X-88594Y-41628D01*
X-88581Y-41654D01*
X-88575Y-41674D01*
X-88568Y-41680D01*
Y-41687D01*
X-88542Y-41765D01*
X-88522Y-41838D01*
X-88509Y-41910D01*
X-88503Y-41975D01*
X-88496Y-42034D01*
Y-42074D01*
Y-42100D01*
Y-42113D01*
X-91835D01*
Y-41516D01*
X-89355D01*
X-89441Y-41398D01*
X-89487Y-41339D01*
X-89526Y-41293D01*
X-89565Y-41247D01*
X-89592Y-41214D01*
X-89611Y-41195D01*
X-89618Y-41188D01*
X-89651Y-41155D01*
X-89697Y-41109D01*
X-89742Y-41063D01*
X-89795Y-41018D01*
X-89913Y-40913D01*
X-90038Y-40808D01*
X-90149Y-40709D01*
X-90202Y-40663D01*
X-90241Y-40624D01*
X-90280Y-40598D01*
X-90307Y-40571D01*
X-90326Y-40558D01*
X-90333Y-40552D01*
X-90451Y-40447D01*
X-90569Y-40349D01*
X-90667Y-40263D01*
X-90766Y-40178D01*
X-90851Y-40099D01*
X-90930Y-40020D01*
X-91002Y-39955D01*
X-91061Y-39896D01*
X-91120Y-39843D01*
X-91166Y-39797D01*
X-91205Y-39758D01*
X-91238Y-39725D01*
X-91258Y-39699D01*
X-91277Y-39679D01*
X-91291Y-39673D01*
Y-39666D01*
X-91389Y-39548D01*
X-91474Y-39430D01*
X-91546Y-39325D01*
X-91606Y-39233D01*
X-91651Y-39161D01*
X-91678Y-39102D01*
X-91697Y-39063D01*
X-91704Y-39050D01*
X-91743Y-38938D01*
X-91776Y-38833D01*
X-91796Y-38728D01*
X-91815Y-38643D01*
X-91822Y-38564D01*
X-91829Y-38505D01*
Y-38466D01*
Y-38453D01*
X-91822Y-38341D01*
X-91809Y-38236D01*
X-91789Y-38138D01*
X-91763Y-38046D01*
X-91691Y-37875D01*
X-91658Y-37797D01*
X-91619Y-37731D01*
X-91573Y-37665D01*
X-91540Y-37613D01*
X-91501Y-37567D01*
X-91468Y-37528D01*
X-91442Y-37495D01*
X-91422Y-37475D01*
X-91409Y-37462D01*
X-91402Y-37455D01*
X-91317Y-37383D01*
X-91232Y-37324D01*
X-91140Y-37265D01*
X-91041Y-37219D01*
X-90943Y-37180D01*
X-90851Y-37147D01*
X-90667Y-37101D01*
X-90582Y-37082D01*
X-90503Y-37069D01*
X-90431Y-37062D01*
X-90366Y-37055D01*
X-90320Y-37049D01*
X-90248D01*
X-90116Y-37055D01*
D02*
G37*
G36*
X-94033D02*
X-93908Y-37062D01*
X-93790Y-37082D01*
X-93685Y-37108D01*
X-93580Y-37134D01*
X-93488Y-37167D01*
X-93403Y-37200D01*
X-93324Y-37233D01*
X-93252Y-37272D01*
X-93193Y-37305D01*
X-93141Y-37337D01*
X-93095Y-37364D01*
X-93062Y-37390D01*
X-93036Y-37410D01*
X-93023Y-37416D01*
X-93016Y-37423D01*
X-92937Y-37495D01*
X-92872Y-37574D01*
X-92813Y-37659D01*
X-92760Y-37751D01*
X-92714Y-37836D01*
X-92675Y-37928D01*
X-92616Y-38105D01*
X-92589Y-38184D01*
X-92570Y-38262D01*
X-92557Y-38328D01*
X-92544Y-38387D01*
X-92537Y-38440D01*
Y-38472D01*
X-92530Y-38499D01*
Y-38505D01*
X-93167Y-38571D01*
X-93180Y-38400D01*
X-93206Y-38256D01*
X-93252Y-38131D01*
X-93305Y-38020D01*
X-93350Y-37941D01*
X-93396Y-37875D01*
X-93423Y-37843D01*
X-93436Y-37829D01*
X-93541Y-37738D01*
X-93659Y-37672D01*
X-93783Y-37626D01*
X-93895Y-37593D01*
X-93993Y-37574D01*
X-94039Y-37567D01*
X-94079D01*
X-94105Y-37560D01*
X-94151D01*
X-94302Y-37574D01*
X-94439Y-37600D01*
X-94557Y-37639D01*
X-94656Y-37685D01*
X-94735Y-37738D01*
X-94794Y-37777D01*
X-94826Y-37803D01*
X-94840Y-37816D01*
X-94931Y-37915D01*
X-94997Y-38020D01*
X-95043Y-38118D01*
X-95076Y-38217D01*
X-95095Y-38302D01*
X-95102Y-38374D01*
X-95108Y-38400D01*
Y-38413D01*
Y-38426D01*
Y-38433D01*
Y-38499D01*
X-95095Y-38564D01*
X-95063Y-38702D01*
X-95017Y-38827D01*
X-94964Y-38938D01*
X-94905Y-39037D01*
X-94879Y-39076D01*
X-94859Y-39115D01*
X-94840Y-39141D01*
X-94826Y-39161D01*
X-94820Y-39174D01*
X-94813Y-39181D01*
X-94754Y-39259D01*
X-94682Y-39338D01*
X-94603Y-39423D01*
X-94518Y-39515D01*
X-94335Y-39693D01*
X-94151Y-39863D01*
X-94065Y-39942D01*
X-93980Y-40014D01*
X-93901Y-40080D01*
X-93836Y-40139D01*
X-93783Y-40185D01*
X-93738Y-40217D01*
X-93711Y-40244D01*
X-93705Y-40250D01*
X-93514Y-40407D01*
X-93350Y-40552D01*
X-93213Y-40683D01*
X-93101Y-40795D01*
X-93009Y-40886D01*
X-92944Y-40959D01*
X-92924Y-40985D01*
X-92904Y-41004D01*
X-92898Y-41011D01*
X-92891Y-41018D01*
X-92793Y-41142D01*
X-92708Y-41260D01*
X-92642Y-41372D01*
X-92583Y-41477D01*
X-92537Y-41562D01*
X-92511Y-41628D01*
X-92498Y-41654D01*
X-92491Y-41674D01*
X-92484Y-41680D01*
Y-41687D01*
X-92458Y-41765D01*
X-92439Y-41838D01*
X-92426Y-41910D01*
X-92419Y-41975D01*
X-92412Y-42034D01*
Y-42074D01*
Y-42100D01*
Y-42113D01*
X-95751D01*
Y-41516D01*
X-93272D01*
X-93357Y-41398D01*
X-93403Y-41339D01*
X-93442Y-41293D01*
X-93482Y-41247D01*
X-93508Y-41214D01*
X-93528Y-41195D01*
X-93534Y-41188D01*
X-93567Y-41155D01*
X-93613Y-41109D01*
X-93659Y-41063D01*
X-93711Y-41018D01*
X-93829Y-40913D01*
X-93954Y-40808D01*
X-94065Y-40709D01*
X-94118Y-40663D01*
X-94157Y-40624D01*
X-94197Y-40598D01*
X-94223Y-40571D01*
X-94243Y-40558D01*
X-94249Y-40552D01*
X-94367Y-40447D01*
X-94485Y-40349D01*
X-94584Y-40263D01*
X-94682Y-40178D01*
X-94767Y-40099D01*
X-94846Y-40020D01*
X-94918Y-39955D01*
X-94977Y-39896D01*
X-95036Y-39843D01*
X-95082Y-39797D01*
X-95122Y-39758D01*
X-95154Y-39725D01*
X-95174Y-39699D01*
X-95194Y-39679D01*
X-95207Y-39673D01*
Y-39666D01*
X-95305Y-39548D01*
X-95391Y-39430D01*
X-95463Y-39325D01*
X-95522Y-39233D01*
X-95568Y-39161D01*
X-95594Y-39102D01*
X-95614Y-39063D01*
X-95620Y-39050D01*
X-95660Y-38938D01*
X-95692Y-38833D01*
X-95712Y-38728D01*
X-95732Y-38643D01*
X-95738Y-38564D01*
X-95745Y-38505D01*
Y-38466D01*
Y-38453D01*
X-95738Y-38341D01*
X-95725Y-38236D01*
X-95705Y-38138D01*
X-95679Y-38046D01*
X-95607Y-37875D01*
X-95574Y-37797D01*
X-95535Y-37731D01*
X-95489Y-37665D01*
X-95456Y-37613D01*
X-95417Y-37567D01*
X-95384Y-37528D01*
X-95358Y-37495D01*
X-95338Y-37475D01*
X-95325Y-37462D01*
X-95318Y-37455D01*
X-95233Y-37383D01*
X-95148Y-37324D01*
X-95056Y-37265D01*
X-94958Y-37219D01*
X-94859Y-37180D01*
X-94767Y-37147D01*
X-94584Y-37101D01*
X-94498Y-37082D01*
X-94420Y-37069D01*
X-94348Y-37062D01*
X-94282Y-37055D01*
X-94236Y-37049D01*
X-94164D01*
X-94033Y-37055D01*
D02*
G37*
G36*
X-48782Y-38387D02*
X-48657Y-38407D01*
X-48552Y-38433D01*
X-48454Y-38459D01*
X-48375Y-38492D01*
X-48316Y-38518D01*
X-48277Y-38538D01*
X-48270Y-38544D01*
X-48264D01*
X-48165Y-38610D01*
X-48073Y-38682D01*
X-47995Y-38754D01*
X-47929Y-38820D01*
X-47877Y-38886D01*
X-47837Y-38932D01*
X-47811Y-38964D01*
X-47804Y-38977D01*
Y-38459D01*
X-47253D01*
Y-42113D01*
X-47870D01*
Y-40224D01*
X-47877Y-40047D01*
X-47883Y-39896D01*
X-47903Y-39765D01*
X-47922Y-39653D01*
X-47936Y-39574D01*
X-47955Y-39509D01*
X-47962Y-39476D01*
X-47968Y-39463D01*
X-48014Y-39371D01*
X-48067Y-39286D01*
X-48119Y-39214D01*
X-48172Y-39161D01*
X-48218Y-39115D01*
X-48257Y-39082D01*
X-48290Y-39063D01*
X-48296Y-39056D01*
X-48382Y-39010D01*
X-48467Y-38977D01*
X-48546Y-38951D01*
X-48624Y-38938D01*
X-48690Y-38925D01*
X-48736Y-38918D01*
X-48782D01*
X-48900Y-38925D01*
X-49005Y-38951D01*
X-49090Y-38984D01*
X-49156Y-39023D01*
X-49208Y-39063D01*
X-49248Y-39096D01*
X-49267Y-39122D01*
X-49274Y-39128D01*
X-49326Y-39214D01*
X-49359Y-39312D01*
X-49385Y-39410D01*
X-49405Y-39515D01*
X-49418Y-39601D01*
X-49425Y-39679D01*
Y-39706D01*
Y-39725D01*
Y-39738D01*
Y-39745D01*
Y-42113D01*
X-50041D01*
Y-39994D01*
Y-39896D01*
X-50055Y-39797D01*
X-50068Y-39712D01*
X-50081Y-39633D01*
X-50100Y-39561D01*
X-50120Y-39489D01*
X-50146Y-39430D01*
X-50173Y-39378D01*
X-50218Y-39292D01*
X-50258Y-39227D01*
X-50284Y-39194D01*
X-50297Y-39181D01*
X-50396Y-39096D01*
X-50507Y-39030D01*
X-50612Y-38984D01*
X-50717Y-38951D01*
X-50809Y-38932D01*
X-50881Y-38925D01*
X-50907Y-38918D01*
X-50947D01*
X-51025Y-38925D01*
X-51091Y-38932D01*
X-51157Y-38951D01*
X-51209Y-38971D01*
X-51255Y-38991D01*
X-51288Y-39004D01*
X-51307Y-39017D01*
X-51314Y-39023D01*
X-51373Y-39063D01*
X-51419Y-39109D01*
X-51458Y-39148D01*
X-51485Y-39194D01*
X-51511Y-39227D01*
X-51524Y-39259D01*
X-51537Y-39279D01*
Y-39286D01*
X-51557Y-39358D01*
X-51570Y-39437D01*
X-51583Y-39529D01*
X-51590Y-39614D01*
X-51596Y-39693D01*
Y-39758D01*
Y-39784D01*
Y-39804D01*
Y-39811D01*
Y-39817D01*
Y-42113D01*
X-52213D01*
Y-39614D01*
Y-39502D01*
X-52200Y-39391D01*
X-52187Y-39292D01*
X-52167Y-39200D01*
X-52147Y-39115D01*
X-52121Y-39043D01*
X-52095Y-38971D01*
X-52068Y-38912D01*
X-52036Y-38859D01*
X-52009Y-38813D01*
X-51983Y-38774D01*
X-51963Y-38741D01*
X-51944Y-38715D01*
X-51931Y-38695D01*
X-51924Y-38689D01*
X-51917Y-38682D01*
X-51859Y-38630D01*
X-51799Y-38584D01*
X-51662Y-38505D01*
X-51524Y-38453D01*
X-51393Y-38420D01*
X-51268Y-38394D01*
X-51216Y-38387D01*
X-51170D01*
X-51130Y-38381D01*
X-51078D01*
X-50953Y-38387D01*
X-50828Y-38407D01*
X-50717Y-38440D01*
X-50605Y-38479D01*
X-50507Y-38531D01*
X-50415Y-38584D01*
X-50330Y-38643D01*
X-50251Y-38702D01*
X-50186Y-38761D01*
X-50127Y-38820D01*
X-50074Y-38873D01*
X-50028Y-38925D01*
X-49995Y-38964D01*
X-49969Y-38997D01*
X-49956Y-39017D01*
X-49949Y-39023D01*
X-49904Y-38918D01*
X-49845Y-38820D01*
X-49786Y-38741D01*
X-49720Y-38676D01*
X-49667Y-38623D01*
X-49621Y-38584D01*
X-49589Y-38558D01*
X-49576Y-38551D01*
X-49471Y-38492D01*
X-49366Y-38453D01*
X-49254Y-38420D01*
X-49149Y-38400D01*
X-49057Y-38387D01*
X-48979Y-38381D01*
X-48913D01*
X-48782Y-38387D01*
D02*
G37*
G36*
X-42622Y-36996D02*
X-42392Y-37029D01*
X-42182Y-37082D01*
X-42091Y-37108D01*
X-41999Y-37134D01*
X-41920Y-37167D01*
X-41848Y-37193D01*
X-41789Y-37219D01*
X-41736Y-37246D01*
X-41697Y-37265D01*
X-41664Y-37278D01*
X-41644Y-37285D01*
X-41638Y-37291D01*
X-41540Y-37350D01*
X-41441Y-37416D01*
X-41271Y-37560D01*
X-41120Y-37705D01*
X-41002Y-37849D01*
X-40949Y-37921D01*
X-40903Y-37980D01*
X-40864Y-38039D01*
X-40838Y-38085D01*
X-40811Y-38125D01*
X-40792Y-38157D01*
X-40785Y-38177D01*
X-40779Y-38184D01*
X-40726Y-38295D01*
X-40680Y-38413D01*
X-40608Y-38643D01*
X-40556Y-38873D01*
X-40536Y-38984D01*
X-40523Y-39089D01*
X-40510Y-39187D01*
X-40497Y-39273D01*
X-40490Y-39351D01*
Y-39423D01*
X-40483Y-39476D01*
Y-39522D01*
Y-39548D01*
Y-39555D01*
X-40497Y-39817D01*
X-40523Y-40073D01*
X-40543Y-40185D01*
X-40569Y-40296D01*
X-40588Y-40401D01*
X-40615Y-40499D01*
X-40641Y-40591D01*
X-40661Y-40670D01*
X-40687Y-40736D01*
X-40707Y-40795D01*
X-40720Y-40841D01*
X-40733Y-40880D01*
X-40746Y-40900D01*
Y-40906D01*
X-40798Y-41018D01*
X-40857Y-41129D01*
X-40916Y-41227D01*
X-40982Y-41319D01*
X-41048Y-41411D01*
X-41113Y-41490D01*
X-41172Y-41562D01*
X-41238Y-41621D01*
X-41297Y-41680D01*
X-41349Y-41733D01*
X-41402Y-41772D01*
X-41441Y-41805D01*
X-41480Y-41838D01*
X-41507Y-41857D01*
X-41520Y-41864D01*
X-41526Y-41870D01*
X-41625Y-41929D01*
X-41730Y-41975D01*
X-41841Y-42021D01*
X-41953Y-42061D01*
X-42176Y-42120D01*
X-42386Y-42159D01*
X-42484Y-42172D01*
X-42570Y-42179D01*
X-42655Y-42185D01*
X-42720Y-42192D01*
X-42779Y-42198D01*
X-42858D01*
X-43002Y-42192D01*
X-43140Y-42179D01*
X-43271Y-42159D01*
X-43396Y-42133D01*
X-43514Y-42100D01*
X-43626Y-42061D01*
X-43724Y-42028D01*
X-43822Y-41982D01*
X-43901Y-41943D01*
X-43973Y-41910D01*
X-44039Y-41870D01*
X-44091Y-41838D01*
X-44137Y-41811D01*
X-44164Y-41792D01*
X-44183Y-41779D01*
X-44190Y-41772D01*
X-44288Y-41687D01*
X-44380Y-41595D01*
X-44465Y-41497D01*
X-44537Y-41392D01*
X-44610Y-41287D01*
X-44669Y-41188D01*
X-44728Y-41083D01*
X-44774Y-40985D01*
X-44820Y-40886D01*
X-44852Y-40801D01*
X-44885Y-40722D01*
X-44911Y-40657D01*
X-44925Y-40598D01*
X-44938Y-40552D01*
X-44951Y-40526D01*
Y-40519D01*
X-44282Y-40349D01*
X-44249Y-40467D01*
X-44216Y-40571D01*
X-44177Y-40670D01*
X-44137Y-40768D01*
X-44091Y-40854D01*
X-44052Y-40932D01*
X-44006Y-41004D01*
X-43960Y-41063D01*
X-43921Y-41123D01*
X-43881Y-41168D01*
X-43842Y-41214D01*
X-43816Y-41247D01*
X-43790Y-41273D01*
X-43770Y-41293D01*
X-43757Y-41300D01*
X-43750Y-41306D01*
X-43678Y-41365D01*
X-43599Y-41411D01*
X-43521Y-41457D01*
X-43435Y-41490D01*
X-43278Y-41549D01*
X-43127Y-41588D01*
X-43062Y-41601D01*
X-42996Y-41608D01*
X-42943Y-41615D01*
X-42891Y-41621D01*
X-42852Y-41628D01*
X-42799D01*
X-42628Y-41615D01*
X-42471Y-41588D01*
X-42327Y-41556D01*
X-42196Y-41510D01*
X-42091Y-41464D01*
X-42045Y-41444D01*
X-42012Y-41431D01*
X-41979Y-41411D01*
X-41959Y-41405D01*
X-41946Y-41392D01*
X-41940D01*
X-41802Y-41293D01*
X-41684Y-41182D01*
X-41585Y-41063D01*
X-41500Y-40945D01*
X-41435Y-40841D01*
X-41415Y-40795D01*
X-41395Y-40755D01*
X-41376Y-40722D01*
X-41363Y-40696D01*
X-41356Y-40683D01*
Y-40677D01*
X-41297Y-40493D01*
X-41251Y-40296D01*
X-41218Y-40112D01*
X-41199Y-39935D01*
X-41185Y-39856D01*
Y-39784D01*
X-41179Y-39719D01*
X-41172Y-39660D01*
Y-39614D01*
Y-39581D01*
Y-39561D01*
Y-39555D01*
X-41179Y-39371D01*
X-41199Y-39194D01*
X-41225Y-39030D01*
X-41251Y-38879D01*
X-41264Y-38820D01*
X-41277Y-38761D01*
X-41290Y-38708D01*
X-41303Y-38662D01*
X-41317Y-38630D01*
X-41323Y-38603D01*
X-41330Y-38590D01*
Y-38584D01*
X-41395Y-38413D01*
X-41480Y-38269D01*
X-41572Y-38138D01*
X-41664Y-38033D01*
X-41743Y-37947D01*
X-41809Y-37889D01*
X-41835Y-37862D01*
X-41855Y-37849D01*
X-41868Y-37836D01*
X-41874D01*
X-41953Y-37784D01*
X-42032Y-37744D01*
X-42196Y-37672D01*
X-42360Y-37620D01*
X-42510Y-37587D01*
X-42583Y-37580D01*
X-42648Y-37567D01*
X-42707Y-37560D01*
X-42753D01*
X-42792Y-37554D01*
X-42852D01*
X-43035Y-37567D01*
X-43199Y-37593D01*
X-43344Y-37633D01*
X-43468Y-37679D01*
X-43567Y-37731D01*
X-43606Y-37751D01*
X-43639Y-37770D01*
X-43665Y-37784D01*
X-43685Y-37797D01*
X-43691Y-37810D01*
X-43698D01*
X-43757Y-37862D01*
X-43816Y-37915D01*
X-43921Y-38039D01*
X-44006Y-38170D01*
X-44078Y-38302D01*
X-44137Y-38420D01*
X-44157Y-38472D01*
X-44177Y-38518D01*
X-44190Y-38558D01*
X-44203Y-38584D01*
X-44210Y-38603D01*
Y-38610D01*
X-44866Y-38453D01*
X-44826Y-38328D01*
X-44774Y-38203D01*
X-44721Y-38092D01*
X-44662Y-37987D01*
X-44603Y-37895D01*
X-44544Y-37803D01*
X-44485Y-37725D01*
X-44426Y-37652D01*
X-44367Y-37587D01*
X-44314Y-37528D01*
X-44262Y-37482D01*
X-44223Y-37442D01*
X-44190Y-37410D01*
X-44157Y-37390D01*
X-44144Y-37377D01*
X-44137Y-37370D01*
X-44039Y-37305D01*
X-43934Y-37239D01*
X-43829Y-37193D01*
X-43724Y-37147D01*
X-43613Y-37108D01*
X-43508Y-37075D01*
X-43311Y-37029D01*
X-43219Y-37016D01*
X-43134Y-37003D01*
X-43055Y-36996D01*
X-42989Y-36990D01*
X-42937Y-36983D01*
X-42740D01*
X-42622Y-36996D01*
D02*
G37*
G36*
X-72883Y-38387D02*
X-72752Y-38400D01*
X-72627Y-38426D01*
X-72509Y-38459D01*
X-72404Y-38499D01*
X-72299Y-38544D01*
X-72208Y-38590D01*
X-72122Y-38636D01*
X-72050Y-38682D01*
X-71984Y-38728D01*
X-71925Y-38774D01*
X-71880Y-38813D01*
X-71840Y-38846D01*
X-71814Y-38873D01*
X-71801Y-38886D01*
X-71794Y-38892D01*
X-71709Y-38991D01*
X-71637Y-39096D01*
X-71578Y-39214D01*
X-71519Y-39332D01*
X-71473Y-39450D01*
X-71440Y-39568D01*
X-71407Y-39686D01*
X-71381Y-39797D01*
X-71361Y-39902D01*
X-71348Y-40001D01*
X-71335Y-40093D01*
X-71329Y-40171D01*
Y-40230D01*
X-71322Y-40283D01*
Y-40309D01*
Y-40322D01*
X-71329Y-40486D01*
X-71342Y-40637D01*
X-71368Y-40775D01*
X-71394Y-40913D01*
X-71427Y-41031D01*
X-71466Y-41149D01*
X-71512Y-41247D01*
X-71558Y-41346D01*
X-71597Y-41424D01*
X-71643Y-41497D01*
X-71683Y-41556D01*
X-71716Y-41608D01*
X-71742Y-41647D01*
X-71768Y-41674D01*
X-71781Y-41693D01*
X-71788Y-41700D01*
X-71880Y-41785D01*
X-71978Y-41864D01*
X-72083Y-41929D01*
X-72188Y-41982D01*
X-72293Y-42034D01*
X-72398Y-42074D01*
X-72503Y-42107D01*
X-72601Y-42133D01*
X-72693Y-42153D01*
X-72785Y-42166D01*
X-72864Y-42179D01*
X-72929Y-42185D01*
X-72982D01*
X-73028Y-42192D01*
X-73060D01*
X-73178Y-42185D01*
X-73290Y-42179D01*
X-73493Y-42146D01*
X-73585Y-42120D01*
X-73671Y-42093D01*
X-73749Y-42067D01*
X-73821Y-42034D01*
X-73887Y-42008D01*
X-73939Y-41982D01*
X-73992Y-41956D01*
X-74031Y-41929D01*
X-74064Y-41910D01*
X-74084Y-41897D01*
X-74097Y-41884D01*
X-74103D01*
X-74241Y-41759D01*
X-74359Y-41615D01*
X-74458Y-41470D01*
X-74536Y-41333D01*
X-74589Y-41208D01*
X-74615Y-41149D01*
X-74628Y-41103D01*
X-74648Y-41063D01*
X-74654Y-41037D01*
X-74661Y-41018D01*
Y-41011D01*
X-74018Y-40926D01*
X-73966Y-41063D01*
X-73900Y-41182D01*
X-73835Y-41287D01*
X-73775Y-41365D01*
X-73723Y-41424D01*
X-73677Y-41470D01*
X-73651Y-41497D01*
X-73638Y-41503D01*
X-73546Y-41562D01*
X-73447Y-41608D01*
X-73349Y-41634D01*
X-73264Y-41660D01*
X-73178Y-41674D01*
X-73119Y-41680D01*
X-73060D01*
X-72975Y-41674D01*
X-72896Y-41667D01*
X-72746Y-41628D01*
X-72614Y-41582D01*
X-72503Y-41523D01*
X-72417Y-41464D01*
X-72345Y-41411D01*
X-72326Y-41392D01*
X-72306Y-41378D01*
X-72299Y-41372D01*
X-72293Y-41365D01*
X-72240Y-41300D01*
X-72194Y-41234D01*
X-72116Y-41090D01*
X-72057Y-40939D01*
X-72011Y-40788D01*
X-71984Y-40657D01*
X-71978Y-40598D01*
X-71971Y-40545D01*
X-71965Y-40506D01*
X-71958Y-40473D01*
Y-40453D01*
Y-40447D01*
X-74681D01*
X-74687Y-40375D01*
Y-40322D01*
Y-40296D01*
Y-40283D01*
X-74681Y-40119D01*
X-74668Y-39961D01*
X-74641Y-39817D01*
X-74615Y-39679D01*
X-74582Y-39555D01*
X-74543Y-39443D01*
X-74497Y-39338D01*
X-74458Y-39240D01*
X-74412Y-39155D01*
X-74366Y-39082D01*
X-74326Y-39023D01*
X-74294Y-38971D01*
X-74267Y-38932D01*
X-74241Y-38905D01*
X-74228Y-38886D01*
X-74221Y-38879D01*
X-74130Y-38794D01*
X-74038Y-38715D01*
X-73939Y-38649D01*
X-73835Y-38590D01*
X-73736Y-38544D01*
X-73638Y-38505D01*
X-73539Y-38466D01*
X-73447Y-38440D01*
X-73362Y-38420D01*
X-73277Y-38407D01*
X-73205Y-38394D01*
X-73146Y-38387D01*
X-73093Y-38381D01*
X-73021D01*
X-72883Y-38387D01*
D02*
G37*
G36*
X-76754D02*
X-76590Y-38413D01*
X-76439Y-38453D01*
X-76314Y-38492D01*
X-76203Y-38531D01*
X-76157Y-38551D01*
X-76124Y-38571D01*
X-76091Y-38584D01*
X-76071Y-38597D01*
X-76058Y-38603D01*
X-76052D01*
X-75914Y-38695D01*
X-75789Y-38800D01*
X-75684Y-38912D01*
X-75606Y-39023D01*
X-75540Y-39122D01*
X-75494Y-39200D01*
X-75475Y-39227D01*
X-75461Y-39253D01*
X-75455Y-39266D01*
Y-39273D01*
X-75389Y-39443D01*
X-75343Y-39620D01*
X-75310Y-39791D01*
X-75291Y-39955D01*
X-75278Y-40027D01*
Y-40093D01*
X-75271Y-40152D01*
X-75265Y-40204D01*
Y-40244D01*
Y-40276D01*
Y-40296D01*
Y-40303D01*
X-75271Y-40467D01*
X-75284Y-40624D01*
X-75304Y-40768D01*
X-75337Y-40906D01*
X-75370Y-41031D01*
X-75409Y-41149D01*
X-75448Y-41254D01*
X-75494Y-41346D01*
X-75533Y-41431D01*
X-75573Y-41503D01*
X-75612Y-41562D01*
X-75645Y-41615D01*
X-75678Y-41654D01*
X-75697Y-41680D01*
X-75711Y-41700D01*
X-75717Y-41706D01*
X-75802Y-41792D01*
X-75901Y-41864D01*
X-75999Y-41929D01*
X-76098Y-41989D01*
X-76196Y-42034D01*
X-76294Y-42074D01*
X-76393Y-42107D01*
X-76485Y-42133D01*
X-76577Y-42153D01*
X-76655Y-42166D01*
X-76727Y-42179D01*
X-76793Y-42185D01*
X-76846D01*
X-76885Y-42192D01*
X-76918D01*
X-77029Y-42185D01*
X-77134Y-42179D01*
X-77324Y-42139D01*
X-77495Y-42080D01*
X-77574Y-42048D01*
X-77646Y-42015D01*
X-77705Y-41989D01*
X-77764Y-41956D01*
X-77810Y-41923D01*
X-77849Y-41897D01*
X-77882Y-41877D01*
X-77902Y-41857D01*
X-77915Y-41851D01*
X-77921Y-41844D01*
X-77994Y-41772D01*
X-78066Y-41700D01*
X-78125Y-41621D01*
X-78177Y-41542D01*
X-78269Y-41378D01*
X-78335Y-41221D01*
X-78361Y-41149D01*
X-78387Y-41077D01*
X-78400Y-41018D01*
X-78420Y-40965D01*
X-78426Y-40919D01*
X-78433Y-40886D01*
X-78440Y-40867D01*
Y-40860D01*
X-77829Y-40775D01*
X-77797Y-40939D01*
X-77751Y-41077D01*
X-77698Y-41195D01*
X-77646Y-41293D01*
X-77600Y-41365D01*
X-77554Y-41424D01*
X-77528Y-41451D01*
X-77515Y-41464D01*
X-77416Y-41536D01*
X-77318Y-41588D01*
X-77219Y-41628D01*
X-77121Y-41654D01*
X-77036Y-41667D01*
X-76970Y-41674D01*
X-76944Y-41680D01*
X-76911D01*
X-76826Y-41674D01*
X-76747Y-41667D01*
X-76603Y-41628D01*
X-76478Y-41575D01*
X-76373Y-41516D01*
X-76288Y-41457D01*
X-76229Y-41405D01*
X-76190Y-41365D01*
X-76183Y-41359D01*
X-76176Y-41352D01*
X-76130Y-41287D01*
X-76085Y-41208D01*
X-76019Y-41044D01*
X-75966Y-40867D01*
X-75934Y-40690D01*
X-75927Y-40611D01*
X-75914Y-40532D01*
X-75907Y-40467D01*
Y-40401D01*
X-75901Y-40355D01*
Y-40316D01*
Y-40289D01*
Y-40283D01*
X-75907Y-40152D01*
X-75914Y-40027D01*
X-75927Y-39915D01*
X-75947Y-39811D01*
X-75966Y-39719D01*
X-75993Y-39633D01*
X-76019Y-39555D01*
X-76045Y-39483D01*
X-76071Y-39423D01*
X-76098Y-39371D01*
X-76124Y-39325D01*
X-76144Y-39292D01*
X-76163Y-39259D01*
X-76176Y-39240D01*
X-76190Y-39233D01*
Y-39227D01*
X-76249Y-39168D01*
X-76308Y-39115D01*
X-76367Y-39069D01*
X-76432Y-39030D01*
X-76557Y-38971D01*
X-76675Y-38932D01*
X-76780Y-38912D01*
X-76826Y-38905D01*
X-76865Y-38899D01*
X-76898Y-38892D01*
X-76944D01*
X-77055Y-38899D01*
X-77154Y-38918D01*
X-77246Y-38951D01*
X-77324Y-38984D01*
X-77383Y-39023D01*
X-77429Y-39050D01*
X-77462Y-39076D01*
X-77469Y-39082D01*
X-77547Y-39161D01*
X-77606Y-39246D01*
X-77659Y-39338D01*
X-77705Y-39423D01*
X-77738Y-39502D01*
X-77757Y-39568D01*
X-77771Y-39594D01*
Y-39614D01*
X-77777Y-39620D01*
Y-39627D01*
X-78381Y-39535D01*
X-78328Y-39338D01*
X-78256Y-39168D01*
X-78177Y-39023D01*
X-78092Y-38899D01*
X-78053Y-38853D01*
X-78013Y-38807D01*
X-77980Y-38767D01*
X-77948Y-38735D01*
X-77921Y-38715D01*
X-77908Y-38695D01*
X-77895Y-38689D01*
X-77889Y-38682D01*
X-77816Y-38630D01*
X-77738Y-38584D01*
X-77580Y-38505D01*
X-77416Y-38453D01*
X-77265Y-38420D01*
X-77193Y-38407D01*
X-77134Y-38394D01*
X-77075Y-38387D01*
X-77023D01*
X-76983Y-38381D01*
X-76924D01*
X-76754Y-38387D01*
D02*
G37*
G36*
X-32087Y-37665D02*
X-33746D01*
Y-42113D01*
X-34415D01*
Y-37665D01*
X-36075D01*
Y-37069D01*
X-32087D01*
Y-37665D01*
D02*
G37*
G36*
X-36869Y-42113D02*
X-37577D01*
Y-41405D01*
X-36869D01*
Y-42113D01*
D02*
G37*
G36*
X-45692D02*
X-46309D01*
Y-38459D01*
X-45692D01*
Y-42113D01*
D02*
G37*
G36*
X-53131D02*
X-53748D01*
Y-38459D01*
X-53131D01*
Y-42113D01*
D02*
G37*
G36*
X-56273Y-38387D02*
X-56142Y-38407D01*
X-56024Y-38433D01*
X-55913Y-38472D01*
X-55808Y-38518D01*
X-55716Y-38571D01*
X-55630Y-38623D01*
X-55552Y-38682D01*
X-55480Y-38741D01*
X-55421Y-38794D01*
X-55375Y-38846D01*
X-55329Y-38892D01*
X-55296Y-38925D01*
X-55276Y-38958D01*
X-55263Y-38977D01*
X-55256Y-38984D01*
Y-38459D01*
X-54699D01*
Y-42113D01*
X-55316D01*
Y-40125D01*
X-55322Y-40001D01*
X-55329Y-39883D01*
X-55342Y-39778D01*
X-55361Y-39679D01*
X-55381Y-39594D01*
X-55407Y-39515D01*
X-55434Y-39450D01*
X-55460Y-39384D01*
X-55486Y-39332D01*
X-55506Y-39292D01*
X-55532Y-39253D01*
X-55552Y-39227D01*
X-55571Y-39200D01*
X-55585Y-39187D01*
X-55598Y-39174D01*
X-55709Y-39089D01*
X-55827Y-39023D01*
X-55945Y-38977D01*
X-56050Y-38951D01*
X-56142Y-38932D01*
X-56221Y-38925D01*
X-56247Y-38918D01*
X-56287D01*
X-56372Y-38925D01*
X-56457Y-38938D01*
X-56529Y-38958D01*
X-56588Y-38977D01*
X-56641Y-38997D01*
X-56680Y-39017D01*
X-56706Y-39030D01*
X-56713Y-39037D01*
X-56778Y-39082D01*
X-56831Y-39128D01*
X-56877Y-39181D01*
X-56910Y-39227D01*
X-56936Y-39273D01*
X-56956Y-39305D01*
X-56969Y-39332D01*
Y-39338D01*
X-56995Y-39417D01*
X-57015Y-39502D01*
X-57028Y-39594D01*
X-57041Y-39686D01*
Y-39765D01*
X-57047Y-39837D01*
Y-39863D01*
Y-39876D01*
Y-39889D01*
Y-39896D01*
Y-42113D01*
X-57664D01*
Y-39870D01*
Y-39719D01*
X-57657Y-39594D01*
X-57651Y-39496D01*
X-57644Y-39410D01*
X-57638Y-39351D01*
X-57631Y-39305D01*
X-57625Y-39279D01*
Y-39273D01*
X-57599Y-39174D01*
X-57572Y-39089D01*
X-57539Y-39010D01*
X-57513Y-38945D01*
X-57480Y-38886D01*
X-57454Y-38846D01*
X-57441Y-38820D01*
X-57434Y-38813D01*
X-57375Y-38748D01*
X-57310Y-38682D01*
X-57244Y-38630D01*
X-57179Y-38590D01*
X-57113Y-38551D01*
X-57067Y-38525D01*
X-57034Y-38512D01*
X-57021Y-38505D01*
X-56916Y-38466D01*
X-56811Y-38433D01*
X-56706Y-38413D01*
X-56614Y-38394D01*
X-56529Y-38387D01*
X-56470Y-38381D01*
X-56411D01*
X-56273Y-38387D01*
D02*
G37*
G36*
X-66520Y-42113D02*
X-68337D01*
X-68501Y-42107D01*
X-68659Y-42100D01*
X-68796Y-42087D01*
X-68914Y-42067D01*
X-69013Y-42054D01*
X-69052Y-42048D01*
X-69085Y-42041D01*
X-69111Y-42034D01*
X-69131D01*
X-69138Y-42028D01*
X-69144D01*
X-69269Y-41995D01*
X-69387Y-41956D01*
X-69492Y-41910D01*
X-69577Y-41870D01*
X-69649Y-41838D01*
X-69702Y-41805D01*
X-69735Y-41785D01*
X-69748Y-41779D01*
X-69839Y-41706D01*
X-69931Y-41634D01*
X-70010Y-41556D01*
X-70076Y-41483D01*
X-70135Y-41418D01*
X-70174Y-41365D01*
X-70207Y-41333D01*
X-70213Y-41319D01*
X-70285Y-41208D01*
X-70358Y-41083D01*
X-70417Y-40959D01*
X-70463Y-40841D01*
X-70502Y-40742D01*
X-70515Y-40696D01*
X-70528Y-40657D01*
X-70541Y-40631D01*
X-70548Y-40604D01*
X-70554Y-40591D01*
Y-40585D01*
X-70600Y-40414D01*
X-70633Y-40237D01*
X-70659Y-40066D01*
X-70673Y-39909D01*
X-70679Y-39837D01*
X-70686Y-39771D01*
Y-39712D01*
X-70692Y-39666D01*
Y-39620D01*
Y-39594D01*
Y-39574D01*
Y-39568D01*
X-70686Y-39325D01*
X-70659Y-39096D01*
X-70646Y-38991D01*
X-70627Y-38892D01*
X-70607Y-38800D01*
X-70594Y-38715D01*
X-70574Y-38636D01*
X-70554Y-38571D01*
X-70535Y-38512D01*
X-70522Y-38459D01*
X-70508Y-38420D01*
X-70495Y-38394D01*
X-70489Y-38374D01*
Y-38367D01*
X-70410Y-38177D01*
X-70312Y-38013D01*
X-70213Y-37862D01*
X-70115Y-37738D01*
X-70069Y-37685D01*
X-70030Y-37639D01*
X-69990Y-37600D01*
X-69958Y-37567D01*
X-69931Y-37541D01*
X-69912Y-37521D01*
X-69898Y-37515D01*
X-69892Y-37508D01*
X-69774Y-37416D01*
X-69649Y-37337D01*
X-69525Y-37278D01*
X-69406Y-37226D01*
X-69308Y-37193D01*
X-69262Y-37180D01*
X-69223Y-37167D01*
X-69196Y-37160D01*
X-69170Y-37154D01*
X-69157Y-37147D01*
X-69151D01*
X-69026Y-37121D01*
X-68882Y-37101D01*
X-68731Y-37088D01*
X-68586Y-37075D01*
X-68462D01*
X-68403Y-37069D01*
X-66520D01*
Y-42113D01*
D02*
G37*
G36*
X-59967Y-38387D02*
X-59848Y-38400D01*
X-59737Y-38420D01*
X-59626Y-38446D01*
X-59527Y-38472D01*
X-59429Y-38512D01*
X-59343Y-38544D01*
X-59265Y-38584D01*
X-59193Y-38623D01*
X-59127Y-38656D01*
X-59074Y-38695D01*
X-59029Y-38722D01*
X-58989Y-38748D01*
X-58963Y-38767D01*
X-58950Y-38781D01*
X-58943Y-38787D01*
X-58845Y-38886D01*
X-58760Y-38991D01*
X-58687Y-39109D01*
X-58622Y-39227D01*
X-58569Y-39351D01*
X-58523Y-39476D01*
X-58484Y-39601D01*
X-58458Y-39725D01*
X-58432Y-39837D01*
X-58418Y-39942D01*
X-58405Y-40040D01*
X-58392Y-40125D01*
Y-40191D01*
X-58386Y-40244D01*
Y-40276D01*
Y-40289D01*
X-58392Y-40460D01*
X-58405Y-40617D01*
X-58432Y-40762D01*
X-58458Y-40900D01*
X-58497Y-41031D01*
X-58536Y-41142D01*
X-58576Y-41247D01*
X-58622Y-41346D01*
X-58668Y-41431D01*
X-58707Y-41503D01*
X-58746Y-41562D01*
X-58786Y-41615D01*
X-58812Y-41654D01*
X-58838Y-41680D01*
X-58851Y-41700D01*
X-58858Y-41706D01*
X-58950Y-41792D01*
X-59048Y-41864D01*
X-59147Y-41929D01*
X-59252Y-41989D01*
X-59356Y-42034D01*
X-59455Y-42074D01*
X-59553Y-42107D01*
X-59652Y-42133D01*
X-59744Y-42153D01*
X-59829Y-42166D01*
X-59901Y-42179D01*
X-59967Y-42185D01*
X-60019D01*
X-60058Y-42192D01*
X-60091D01*
X-60268Y-42185D01*
X-60432Y-42159D01*
X-60583Y-42120D01*
X-60708Y-42080D01*
X-60819Y-42041D01*
X-60865Y-42021D01*
X-60898Y-42002D01*
X-60931Y-41989D01*
X-60951Y-41975D01*
X-60964Y-41969D01*
X-60970D01*
X-61115Y-41877D01*
X-61239Y-41779D01*
X-61344Y-41674D01*
X-61430Y-41575D01*
X-61502Y-41483D01*
X-61548Y-41411D01*
X-61567Y-41385D01*
X-61580Y-41365D01*
X-61587Y-41352D01*
Y-41346D01*
X-61626Y-41267D01*
X-61659Y-41182D01*
X-61712Y-40998D01*
X-61751Y-40814D01*
X-61777Y-40637D01*
X-61784Y-40558D01*
X-61790Y-40480D01*
X-61797Y-40414D01*
X-61803Y-40355D01*
Y-40303D01*
Y-40270D01*
Y-40244D01*
Y-40237D01*
X-61797Y-40080D01*
X-61784Y-39929D01*
X-61757Y-39791D01*
X-61731Y-39660D01*
X-61692Y-39535D01*
X-61652Y-39423D01*
X-61607Y-39325D01*
X-61567Y-39233D01*
X-61521Y-39155D01*
X-61475Y-39082D01*
X-61436Y-39017D01*
X-61397Y-38971D01*
X-61370Y-38932D01*
X-61344Y-38899D01*
X-61331Y-38886D01*
X-61325Y-38879D01*
X-61233Y-38794D01*
X-61134Y-38715D01*
X-61036Y-38649D01*
X-60931Y-38590D01*
X-60826Y-38544D01*
X-60721Y-38505D01*
X-60623Y-38466D01*
X-60531Y-38440D01*
X-60439Y-38420D01*
X-60354Y-38407D01*
X-60281Y-38394D01*
X-60216Y-38387D01*
X-60163Y-38381D01*
X-60091D01*
X-59967Y-38387D01*
D02*
G37*
G36*
X-86115Y-37062D02*
X-85938Y-37095D01*
X-85780Y-37141D01*
X-85649Y-37193D01*
X-85590Y-37226D01*
X-85544Y-37252D01*
X-85498Y-37278D01*
X-85465Y-37298D01*
X-85439Y-37318D01*
X-85419Y-37331D01*
X-85406Y-37337D01*
X-85400Y-37344D01*
X-85275Y-37462D01*
X-85164Y-37600D01*
X-85072Y-37744D01*
X-84993Y-37875D01*
X-84934Y-38000D01*
X-84908Y-38052D01*
X-84888Y-38098D01*
X-84875Y-38138D01*
X-84862Y-38164D01*
X-84855Y-38184D01*
Y-38190D01*
X-84822Y-38295D01*
X-84796Y-38407D01*
X-84750Y-38643D01*
X-84718Y-38886D01*
X-84698Y-39115D01*
X-84685Y-39220D01*
Y-39319D01*
X-84678Y-39404D01*
X-84672Y-39476D01*
Y-39542D01*
Y-39588D01*
Y-39614D01*
Y-39627D01*
X-84678Y-39883D01*
X-84691Y-40125D01*
X-84718Y-40342D01*
X-84750Y-40545D01*
X-84783Y-40736D01*
X-84829Y-40900D01*
X-84875Y-41050D01*
X-84921Y-41188D01*
X-84967Y-41306D01*
X-85006Y-41405D01*
X-85052Y-41490D01*
X-85085Y-41562D01*
X-85118Y-41615D01*
X-85144Y-41647D01*
X-85157Y-41674D01*
X-85164Y-41680D01*
X-85249Y-41772D01*
X-85334Y-41851D01*
X-85426Y-41923D01*
X-85518Y-41982D01*
X-85616Y-42028D01*
X-85715Y-42074D01*
X-85806Y-42107D01*
X-85898Y-42133D01*
X-85984Y-42153D01*
X-86062Y-42172D01*
X-86128Y-42185D01*
X-86194Y-42192D01*
X-86239D01*
X-86279Y-42198D01*
X-86312D01*
X-86410Y-42192D01*
X-86508Y-42185D01*
X-86686Y-42153D01*
X-86843Y-42107D01*
X-86974Y-42048D01*
X-87033Y-42021D01*
X-87079Y-41995D01*
X-87125Y-41969D01*
X-87158Y-41949D01*
X-87184Y-41929D01*
X-87210Y-41916D01*
X-87217Y-41903D01*
X-87223D01*
X-87355Y-41785D01*
X-87466Y-41647D01*
X-87558Y-41510D01*
X-87637Y-41372D01*
X-87696Y-41254D01*
X-87722Y-41201D01*
X-87742Y-41155D01*
X-87755Y-41116D01*
X-87768Y-41090D01*
X-87774Y-41070D01*
Y-41063D01*
X-87807Y-40959D01*
X-87833Y-40847D01*
X-87879Y-40611D01*
X-87912Y-40368D01*
X-87938Y-40139D01*
X-87945Y-40034D01*
X-87952Y-39935D01*
Y-39850D01*
X-87958Y-39778D01*
Y-39712D01*
Y-39666D01*
Y-39640D01*
Y-39627D01*
Y-39489D01*
X-87952Y-39358D01*
X-87945Y-39240D01*
X-87938Y-39128D01*
X-87932Y-39017D01*
X-87919Y-38925D01*
X-87912Y-38833D01*
X-87899Y-38754D01*
X-87886Y-38682D01*
X-87879Y-38617D01*
X-87866Y-38564D01*
X-87860Y-38518D01*
X-87853Y-38485D01*
X-87847Y-38459D01*
X-87840Y-38446D01*
Y-38440D01*
X-87794Y-38282D01*
X-87748Y-38131D01*
X-87696Y-38007D01*
X-87643Y-37895D01*
X-87597Y-37803D01*
X-87564Y-37738D01*
X-87551Y-37718D01*
X-87538Y-37698D01*
X-87532Y-37692D01*
Y-37685D01*
X-87453Y-37574D01*
X-87368Y-37482D01*
X-87282Y-37403D01*
X-87204Y-37331D01*
X-87132Y-37278D01*
X-87079Y-37246D01*
X-87040Y-37219D01*
X-87033Y-37213D01*
X-87027D01*
X-86909Y-37160D01*
X-86784Y-37121D01*
X-86666Y-37088D01*
X-86554Y-37069D01*
X-86456Y-37055D01*
X-86417D01*
X-86377Y-37049D01*
X-86213D01*
X-86115Y-37062D01*
D02*
G37*
G36*
X-62689Y-42113D02*
X-63037D01*
X-63030Y-42225D01*
X-63017Y-42316D01*
X-63004Y-42395D01*
X-62984Y-42467D01*
X-62964Y-42520D01*
X-62945Y-42553D01*
X-62938Y-42579D01*
X-62932Y-42585D01*
X-62892Y-42645D01*
X-62846Y-42697D01*
X-62801Y-42743D01*
X-62755Y-42782D01*
X-62715Y-42808D01*
X-62682Y-42828D01*
X-62656Y-42841D01*
X-62650Y-42848D01*
X-62820Y-43110D01*
X-62925Y-43058D01*
X-63011Y-42999D01*
X-63089Y-42933D01*
X-63148Y-42874D01*
X-63194Y-42822D01*
X-63227Y-42776D01*
X-63247Y-42749D01*
X-63253Y-42736D01*
X-63299Y-42645D01*
X-63339Y-42540D01*
X-63365Y-42435D01*
X-63378Y-42336D01*
X-63391Y-42251D01*
X-63398Y-42179D01*
Y-42153D01*
Y-42133D01*
Y-42120D01*
Y-42113D01*
Y-41405D01*
X-62689D01*
Y-42113D01*
D02*
G37*
%LPC*%
G36*
X-49956Y-25053D02*
X-49995D01*
X-50068Y-25060D01*
X-50140Y-25066D01*
X-50271Y-25106D01*
X-50389Y-25158D01*
X-50487Y-25224D01*
X-50566Y-25289D01*
X-50625Y-25342D01*
X-50665Y-25381D01*
X-50678Y-25388D01*
Y-25394D01*
X-50730Y-25460D01*
X-50776Y-25539D01*
X-50842Y-25703D01*
X-50894Y-25873D01*
X-50933Y-26044D01*
X-50940Y-26129D01*
X-50953Y-26201D01*
X-50960Y-26267D01*
Y-26326D01*
X-50966Y-26378D01*
Y-26411D01*
Y-26437D01*
Y-26444D01*
Y-26568D01*
X-50953Y-26687D01*
X-50940Y-26798D01*
X-50920Y-26903D01*
X-50894Y-26995D01*
X-50868Y-27080D01*
X-50842Y-27159D01*
X-50815Y-27231D01*
X-50789Y-27290D01*
X-50763Y-27343D01*
X-50737Y-27389D01*
X-50710Y-27428D01*
X-50691Y-27454D01*
X-50678Y-27474D01*
X-50671Y-27487D01*
X-50665Y-27494D01*
X-50605Y-27553D01*
X-50553Y-27605D01*
X-50487Y-27657D01*
X-50428Y-27697D01*
X-50310Y-27756D01*
X-50205Y-27795D01*
X-50107Y-27821D01*
X-50028Y-27835D01*
X-50002Y-27841D01*
X-49963D01*
X-49871Y-27835D01*
X-49786Y-27821D01*
X-49707Y-27795D01*
X-49628Y-27769D01*
X-49497Y-27690D01*
X-49385Y-27605D01*
X-49294Y-27520D01*
X-49228Y-27441D01*
X-49208Y-27415D01*
X-49189Y-27389D01*
X-49182Y-27375D01*
X-49175Y-27369D01*
X-49143Y-27310D01*
X-49116Y-27244D01*
X-49070Y-27100D01*
X-49044Y-26943D01*
X-49018Y-26785D01*
X-49005Y-26647D01*
Y-26588D01*
X-48998Y-26529D01*
Y-26483D01*
Y-26450D01*
Y-26431D01*
Y-26424D01*
X-49005Y-26306D01*
X-49011Y-26188D01*
X-49025Y-26083D01*
X-49044Y-25985D01*
X-49064Y-25893D01*
X-49090Y-25814D01*
X-49116Y-25735D01*
X-49149Y-25670D01*
X-49175Y-25604D01*
X-49202Y-25552D01*
X-49228Y-25512D01*
X-49248Y-25473D01*
X-49267Y-25447D01*
X-49280Y-25420D01*
X-49294Y-25414D01*
Y-25407D01*
X-49352Y-25342D01*
X-49412Y-25289D01*
X-49471Y-25243D01*
X-49530Y-25204D01*
X-49648Y-25139D01*
X-49753Y-25099D01*
X-49851Y-25073D01*
X-49930Y-25060D01*
X-49956Y-25053D01*
D02*
G37*
G36*
X-39414Y-26444D02*
X-39421D01*
Y-26673D01*
X-39414Y-26818D01*
X-39408Y-26943D01*
X-39388Y-27047D01*
X-39375Y-27133D01*
X-39355Y-27205D01*
X-39335Y-27251D01*
X-39329Y-27277D01*
X-39322Y-27290D01*
X-39270Y-27389D01*
X-39204Y-27467D01*
X-39132Y-27546D01*
X-39066Y-27605D01*
X-39007Y-27651D01*
X-38955Y-27690D01*
X-38922Y-27710D01*
X-38916Y-27716D01*
X-38909D01*
X-38804Y-27769D01*
X-38693Y-27802D01*
X-38588Y-27828D01*
X-38489Y-27848D01*
X-38404Y-27861D01*
X-38338Y-27867D01*
X-38279D01*
X-38155Y-27861D01*
X-38043Y-27841D01*
X-37945Y-27815D01*
X-37866Y-27782D01*
X-37807Y-27756D01*
X-37761Y-27730D01*
X-37735Y-27710D01*
X-37728Y-27703D01*
X-37669Y-27638D01*
X-37623Y-27572D01*
X-37590Y-27500D01*
X-37571Y-27441D01*
X-37558Y-27382D01*
X-37545Y-27336D01*
Y-27310D01*
Y-27297D01*
X-37551Y-27238D01*
X-37558Y-27179D01*
X-37571Y-27133D01*
X-37590Y-27087D01*
X-37604Y-27054D01*
X-37617Y-27021D01*
X-37623Y-27008D01*
X-37630Y-27002D01*
X-37663Y-26956D01*
X-37702Y-26916D01*
X-37781Y-26851D01*
X-37820Y-26831D01*
X-37846Y-26818D01*
X-37866Y-26805D01*
X-37872D01*
X-37938Y-26778D01*
X-38023Y-26752D01*
X-38115Y-26733D01*
X-38201Y-26713D01*
X-38279Y-26700D01*
X-38351Y-26687D01*
X-38378D01*
X-38391Y-26680D01*
X-38410D01*
X-38535Y-26660D01*
X-38647Y-26641D01*
X-38752Y-26621D01*
X-38850Y-26601D01*
X-38942Y-26582D01*
X-39027Y-26562D01*
X-39099Y-26542D01*
X-39165Y-26523D01*
X-39224Y-26509D01*
X-39276Y-26490D01*
X-39322Y-26477D01*
X-39355Y-26464D01*
X-39388Y-26457D01*
X-39408Y-26450D01*
X-39414Y-26444D01*
D02*
G37*
G36*
X-93436Y-26444D02*
X-93442D01*
Y-26673D01*
X-93436Y-26818D01*
X-93429Y-26943D01*
X-93410Y-27047D01*
X-93396Y-27133D01*
X-93377Y-27205D01*
X-93357Y-27251D01*
X-93350Y-27277D01*
X-93344Y-27290D01*
X-93291Y-27389D01*
X-93226Y-27467D01*
X-93154Y-27546D01*
X-93088Y-27605D01*
X-93029Y-27651D01*
X-92976Y-27690D01*
X-92944Y-27710D01*
X-92937Y-27716D01*
X-92931D01*
X-92826Y-27769D01*
X-92714Y-27802D01*
X-92609Y-27828D01*
X-92511Y-27848D01*
X-92426Y-27861D01*
X-92360Y-27867D01*
X-92301D01*
X-92176Y-27861D01*
X-92065Y-27841D01*
X-91966Y-27815D01*
X-91888Y-27782D01*
X-91829Y-27756D01*
X-91783Y-27730D01*
X-91756Y-27710D01*
X-91750Y-27703D01*
X-91691Y-27638D01*
X-91645Y-27572D01*
X-91612Y-27500D01*
X-91592Y-27441D01*
X-91579Y-27382D01*
X-91566Y-27336D01*
Y-27310D01*
Y-27297D01*
X-91573Y-27238D01*
X-91579Y-27179D01*
X-91592Y-27133D01*
X-91612Y-27087D01*
X-91625Y-27054D01*
X-91638Y-27021D01*
X-91645Y-27008D01*
X-91651Y-27002D01*
X-91684Y-26956D01*
X-91724Y-26916D01*
X-91802Y-26851D01*
X-91842Y-26831D01*
X-91868Y-26818D01*
X-91888Y-26805D01*
X-91894D01*
X-91960Y-26779D01*
X-92045Y-26752D01*
X-92137Y-26733D01*
X-92222Y-26713D01*
X-92301Y-26700D01*
X-92373Y-26687D01*
X-92399D01*
X-92412Y-26680D01*
X-92432D01*
X-92557Y-26660D01*
X-92668Y-26641D01*
X-92773Y-26621D01*
X-92872Y-26601D01*
X-92963Y-26582D01*
X-93049Y-26562D01*
X-93121Y-26542D01*
X-93186Y-26523D01*
X-93246Y-26509D01*
X-93298Y-26490D01*
X-93344Y-26477D01*
X-93377Y-26464D01*
X-93410Y-26457D01*
X-93429Y-26450D01*
X-93436Y-26444D01*
D02*
G37*
G36*
X-53820Y-25053D02*
X-53859D01*
X-53944Y-25060D01*
X-54030Y-25066D01*
X-54181Y-25112D01*
X-54312Y-25165D01*
X-54423Y-25230D01*
X-54509Y-25302D01*
X-54574Y-25355D01*
X-54594Y-25381D01*
X-54614Y-25401D01*
X-54627Y-25407D01*
Y-25414D01*
X-54692Y-25506D01*
X-54745Y-25617D01*
X-54784Y-25729D01*
X-54817Y-25840D01*
X-54837Y-25939D01*
X-54850Y-25985D01*
Y-26024D01*
X-54856Y-26050D01*
X-54863Y-26076D01*
Y-26090D01*
Y-26096D01*
X-52823D01*
X-52842Y-25926D01*
X-52882Y-25781D01*
X-52934Y-25650D01*
X-52993Y-25539D01*
X-53046Y-25453D01*
X-53092Y-25394D01*
X-53124Y-25355D01*
X-53138Y-25342D01*
X-53197Y-25289D01*
X-53256Y-25243D01*
X-53374Y-25178D01*
X-53499Y-25125D01*
X-53610Y-25086D01*
X-53708Y-25066D01*
X-53754Y-25060D01*
X-53787D01*
X-53820Y-25053D01*
D02*
G37*
G36*
X-32756Y-23787D02*
X-34448D01*
X-34547Y-23800D01*
X-34632Y-23807D01*
X-34711Y-23826D01*
X-34789Y-23840D01*
X-34855Y-23859D01*
X-34914Y-23886D01*
X-34966Y-23905D01*
X-35058Y-23951D01*
X-35117Y-23984D01*
X-35157Y-24010D01*
X-35170Y-24023D01*
X-35255Y-24115D01*
X-35321Y-24214D01*
X-35367Y-24312D01*
X-35399Y-24404D01*
X-35419Y-24489D01*
X-35426Y-24555D01*
X-35432Y-24581D01*
Y-24600D01*
Y-24607D01*
Y-24614D01*
X-35426Y-24705D01*
X-35412Y-24784D01*
X-35386Y-24863D01*
X-35367Y-24928D01*
X-35340Y-24988D01*
X-35314Y-25027D01*
X-35301Y-25060D01*
X-35294Y-25066D01*
X-35242Y-25139D01*
X-35176Y-25204D01*
X-35111Y-25256D01*
X-35052Y-25296D01*
X-34993Y-25329D01*
X-34947Y-25348D01*
X-34914Y-25361D01*
X-34901Y-25368D01*
X-34796Y-25401D01*
X-34684Y-25420D01*
X-34560Y-25440D01*
X-34448Y-25447D01*
X-34343Y-25453D01*
X-34297Y-25460D01*
X-32756D01*
Y-23787D01*
D02*
G37*
G36*
X-67202Y-23826D02*
X-68646D01*
X-68777Y-23833D01*
X-68882Y-23840D01*
X-68967Y-23846D01*
X-69026Y-23859D01*
X-69072Y-23866D01*
X-69098Y-23872D01*
X-69105D01*
X-69196Y-23905D01*
X-69282Y-23951D01*
X-69354Y-23997D01*
X-69413Y-24049D01*
X-69459Y-24095D01*
X-69498Y-24135D01*
X-69518Y-24161D01*
X-69525Y-24174D01*
X-69577Y-24259D01*
X-69616Y-24351D01*
X-69649Y-24443D01*
X-69669Y-24528D01*
X-69682Y-24600D01*
X-69688Y-24660D01*
Y-24699D01*
Y-24705D01*
Y-24712D01*
X-69675Y-24870D01*
X-69643Y-25001D01*
X-69603Y-25119D01*
X-69551Y-25217D01*
X-69498Y-25296D01*
X-69459Y-25348D01*
X-69426Y-25381D01*
X-69413Y-25394D01*
X-69361Y-25434D01*
X-69295Y-25473D01*
X-69157Y-25532D01*
X-69006Y-25571D01*
X-68855Y-25598D01*
X-68718Y-25617D01*
X-68659Y-25624D01*
X-68606D01*
X-68560Y-25631D01*
X-67202D01*
Y-23826D01*
D02*
G37*
G36*
X-76472Y-23754D02*
X-76524Y-23918D01*
X-76577Y-24095D01*
X-76636Y-24272D01*
X-76695Y-24437D01*
X-76721Y-24515D01*
X-76747Y-24587D01*
X-76773Y-24653D01*
X-76793Y-24705D01*
X-76806Y-24751D01*
X-76819Y-24784D01*
X-76832Y-24804D01*
Y-24811D01*
X-77357Y-26201D01*
X-75645D01*
X-76196Y-24725D01*
X-76262Y-24548D01*
X-76314Y-24371D01*
X-76360Y-24207D01*
X-76399Y-24063D01*
X-76419Y-23997D01*
X-76432Y-23938D01*
X-76445Y-23886D01*
X-76452Y-23840D01*
X-76459Y-23800D01*
X-76465Y-23774D01*
X-76472Y-23761D01*
Y-23754D01*
D02*
G37*
G36*
X-80119Y-23826D02*
X-81562D01*
X-81693Y-23833D01*
X-81798Y-23840D01*
X-81884Y-23846D01*
X-81943Y-23859D01*
X-81989Y-23866D01*
X-82015Y-23872D01*
X-82021D01*
X-82113Y-23905D01*
X-82199Y-23951D01*
X-82271Y-23997D01*
X-82330Y-24049D01*
X-82376Y-24095D01*
X-82415Y-24135D01*
X-82435Y-24161D01*
X-82441Y-24174D01*
X-82494Y-24259D01*
X-82533Y-24351D01*
X-82566Y-24443D01*
X-82586Y-24528D01*
X-82599Y-24600D01*
X-82605Y-24660D01*
Y-24699D01*
Y-24705D01*
Y-24712D01*
X-82592Y-24870D01*
X-82559Y-25001D01*
X-82520Y-25119D01*
X-82467Y-25217D01*
X-82415Y-25296D01*
X-82376Y-25348D01*
X-82343Y-25381D01*
X-82330Y-25394D01*
X-82277Y-25434D01*
X-82212Y-25473D01*
X-82074Y-25532D01*
X-81923Y-25571D01*
X-81772Y-25598D01*
X-81634Y-25617D01*
X-81575Y-25624D01*
X-81523D01*
X-81477Y-25631D01*
X-80119D01*
Y-23826D01*
D02*
G37*
G36*
X-46053Y-25027D02*
X-46092D01*
X-46164Y-25034D01*
X-46237Y-25040D01*
X-46368Y-25079D01*
X-46486Y-25139D01*
X-46584Y-25197D01*
X-46670Y-25263D01*
X-46729Y-25322D01*
X-46768Y-25361D01*
X-46781Y-25368D01*
Y-25375D01*
X-46834Y-25440D01*
X-46879Y-25519D01*
X-46945Y-25683D01*
X-46997Y-25860D01*
X-47037Y-26024D01*
X-47043Y-26103D01*
X-47056Y-26182D01*
X-47063Y-26247D01*
Y-26306D01*
X-47070Y-26352D01*
Y-26385D01*
Y-26411D01*
Y-26418D01*
Y-26549D01*
X-47056Y-26673D01*
X-47043Y-26785D01*
X-47024Y-26890D01*
X-47004Y-26988D01*
X-46978Y-27080D01*
X-46952Y-27159D01*
X-46925Y-27231D01*
X-46892Y-27290D01*
X-46866Y-27343D01*
X-46840Y-27389D01*
X-46820Y-27428D01*
X-46801Y-27454D01*
X-46788Y-27474D01*
X-46781Y-27487D01*
X-46775Y-27494D01*
X-46715Y-27553D01*
X-46656Y-27605D01*
X-46597Y-27657D01*
X-46538Y-27697D01*
X-46420Y-27756D01*
X-46309Y-27795D01*
X-46210Y-27821D01*
X-46171Y-27828D01*
X-46138Y-27835D01*
X-46105Y-27841D01*
X-46066D01*
X-45994Y-27835D01*
X-45922Y-27828D01*
X-45784Y-27789D01*
X-45666Y-27736D01*
X-45567Y-27671D01*
X-45482Y-27612D01*
X-45423Y-27559D01*
X-45384Y-27520D01*
X-45377Y-27513D01*
X-45371Y-27507D01*
X-45318Y-27441D01*
X-45279Y-27369D01*
X-45207Y-27205D01*
X-45161Y-27034D01*
X-45121Y-26864D01*
X-45115Y-26785D01*
X-45102Y-26713D01*
X-45095Y-26641D01*
Y-26582D01*
X-45088Y-26536D01*
Y-26503D01*
Y-26477D01*
Y-26470D01*
X-45095Y-26346D01*
X-45102Y-26221D01*
X-45115Y-26109D01*
X-45134Y-26004D01*
X-45161Y-25912D01*
X-45187Y-25821D01*
X-45213Y-25742D01*
X-45239Y-25670D01*
X-45266Y-25611D01*
X-45292Y-25552D01*
X-45318Y-25506D01*
X-45344Y-25466D01*
X-45364Y-25440D01*
X-45377Y-25420D01*
X-45390Y-25407D01*
Y-25401D01*
X-45449Y-25335D01*
X-45508Y-25276D01*
X-45567Y-25230D01*
X-45626Y-25184D01*
X-45685Y-25145D01*
X-45744Y-25119D01*
X-45856Y-25073D01*
X-45948Y-25047D01*
X-46027Y-25034D01*
X-46053Y-25027D01*
D02*
G37*
G36*
X-34363Y-31369D02*
X-34415Y-31533D01*
X-34468Y-31710D01*
X-34527Y-31887D01*
X-34586Y-32051D01*
X-34612Y-32130D01*
X-34639Y-32202D01*
X-34665Y-32268D01*
X-34684Y-32320D01*
X-34697Y-32366D01*
X-34711Y-32399D01*
X-34724Y-32419D01*
Y-32425D01*
X-35249Y-33816D01*
X-33536D01*
X-34087Y-32340D01*
X-34153Y-32163D01*
X-34205Y-31986D01*
X-34251Y-31822D01*
X-34291Y-31677D01*
X-34310Y-31612D01*
X-34324Y-31553D01*
X-34337Y-31500D01*
X-34343Y-31454D01*
X-34350Y-31415D01*
X-34356Y-31389D01*
X-34363Y-31376D01*
Y-31369D01*
D02*
G37*
G36*
X-47411Y-31402D02*
X-49103D01*
X-49202Y-31415D01*
X-49287Y-31422D01*
X-49366Y-31441D01*
X-49444Y-31454D01*
X-49510Y-31474D01*
X-49569Y-31500D01*
X-49621Y-31520D01*
X-49713Y-31566D01*
X-49772Y-31599D01*
X-49812Y-31625D01*
X-49825Y-31638D01*
X-49910Y-31730D01*
X-49976Y-31828D01*
X-50022Y-31927D01*
X-50055Y-32019D01*
X-50074Y-32104D01*
X-50081Y-32169D01*
X-50087Y-32196D01*
Y-32215D01*
Y-32222D01*
Y-32228D01*
X-50081Y-32320D01*
X-50068Y-32399D01*
X-50041Y-32478D01*
X-50022Y-32543D01*
X-49995Y-32602D01*
X-49969Y-32642D01*
X-49956Y-32675D01*
X-49949Y-32681D01*
X-49897Y-32753D01*
X-49831Y-32819D01*
X-49766Y-32871D01*
X-49707Y-32911D01*
X-49648Y-32943D01*
X-49602Y-32963D01*
X-49569Y-32976D01*
X-49556Y-32983D01*
X-49451Y-33016D01*
X-49339Y-33035D01*
X-49215Y-33055D01*
X-49103Y-33062D01*
X-48998Y-33068D01*
X-48952Y-33075D01*
X-47411D01*
Y-31402D01*
D02*
G37*
G36*
X-72988Y-38892D02*
X-73028D01*
X-73113Y-38899D01*
X-73198Y-38905D01*
X-73349Y-38951D01*
X-73480Y-39004D01*
X-73592Y-39069D01*
X-73677Y-39141D01*
X-73743Y-39194D01*
X-73762Y-39220D01*
X-73782Y-39240D01*
X-73795Y-39246D01*
Y-39253D01*
X-73861Y-39345D01*
X-73913Y-39456D01*
X-73953Y-39568D01*
X-73985Y-39679D01*
X-74005Y-39778D01*
X-74018Y-39824D01*
Y-39863D01*
X-74025Y-39889D01*
X-74031Y-39915D01*
Y-39929D01*
Y-39935D01*
X-71991D01*
X-72011Y-39765D01*
X-72050Y-39620D01*
X-72103Y-39489D01*
X-72162Y-39378D01*
X-72214Y-39292D01*
X-72260Y-39233D01*
X-72293Y-39194D01*
X-72306Y-39181D01*
X-72365Y-39128D01*
X-72424Y-39082D01*
X-72542Y-39017D01*
X-72667Y-38964D01*
X-72778Y-38925D01*
X-72877Y-38905D01*
X-72923Y-38899D01*
X-72955D01*
X-72988Y-38892D01*
D02*
G37*
G36*
X-67189Y-37665D02*
X-68357D01*
X-68455Y-37672D01*
X-68547D01*
X-68632Y-37679D01*
X-68711Y-37692D01*
X-68783Y-37698D01*
X-68849Y-37705D01*
X-68901Y-37718D01*
X-68954Y-37725D01*
X-68993Y-37738D01*
X-69033Y-37744D01*
X-69059Y-37751D01*
X-69085Y-37757D01*
X-69098Y-37764D01*
X-69111Y-37770D01*
X-69177Y-37803D01*
X-69242Y-37836D01*
X-69367Y-37921D01*
X-69472Y-38013D01*
X-69564Y-38111D01*
X-69636Y-38197D01*
X-69695Y-38269D01*
X-69715Y-38302D01*
X-69728Y-38321D01*
X-69741Y-38335D01*
Y-38341D01*
X-69787Y-38426D01*
X-69826Y-38518D01*
X-69892Y-38708D01*
X-69938Y-38912D01*
X-69971Y-39109D01*
X-69984Y-39200D01*
X-69990Y-39286D01*
X-69997Y-39358D01*
Y-39423D01*
X-70003Y-39476D01*
Y-39522D01*
Y-39548D01*
Y-39555D01*
X-69997Y-39758D01*
X-69984Y-39948D01*
X-69958Y-40112D01*
X-69944Y-40185D01*
X-69938Y-40257D01*
X-69925Y-40316D01*
X-69912Y-40368D01*
X-69898Y-40414D01*
X-69885Y-40453D01*
X-69879Y-40486D01*
X-69872Y-40506D01*
X-69866Y-40519D01*
Y-40526D01*
X-69813Y-40670D01*
X-69754Y-40795D01*
X-69695Y-40906D01*
X-69636Y-40998D01*
X-69577Y-41070D01*
X-69538Y-41123D01*
X-69511Y-41155D01*
X-69498Y-41168D01*
X-69433Y-41227D01*
X-69354Y-41280D01*
X-69282Y-41319D01*
X-69210Y-41359D01*
X-69144Y-41385D01*
X-69092Y-41405D01*
X-69059Y-41418D01*
X-69052Y-41424D01*
X-69046D01*
X-68934Y-41457D01*
X-68803Y-41477D01*
X-68672Y-41497D01*
X-68547Y-41503D01*
X-68436Y-41510D01*
X-68390Y-41516D01*
X-67189D01*
Y-37665D01*
D02*
G37*
G36*
X-60045Y-38892D02*
X-60091D01*
X-60176Y-38899D01*
X-60255Y-38905D01*
X-60406Y-38945D01*
X-60537Y-39004D01*
X-60649Y-39069D01*
X-60734Y-39135D01*
X-60806Y-39194D01*
X-60826Y-39214D01*
X-60846Y-39233D01*
X-60852Y-39240D01*
X-60859Y-39246D01*
X-60911Y-39312D01*
X-60964Y-39391D01*
X-61036Y-39555D01*
X-61095Y-39725D01*
X-61128Y-39889D01*
X-61141Y-39968D01*
X-61154Y-40040D01*
X-61160Y-40099D01*
Y-40158D01*
X-61167Y-40204D01*
Y-40237D01*
Y-40263D01*
Y-40270D01*
Y-40401D01*
X-61154Y-40519D01*
X-61141Y-40631D01*
X-61121Y-40736D01*
X-61095Y-40834D01*
X-61069Y-40919D01*
X-61042Y-40998D01*
X-61016Y-41070D01*
X-60983Y-41129D01*
X-60957Y-41182D01*
X-60931Y-41227D01*
X-60905Y-41267D01*
X-60885Y-41293D01*
X-60872Y-41313D01*
X-60865Y-41326D01*
X-60859Y-41333D01*
X-60800Y-41392D01*
X-60741Y-41444D01*
X-60675Y-41497D01*
X-60610Y-41536D01*
X-60478Y-41595D01*
X-60360Y-41634D01*
X-60255Y-41660D01*
X-60209Y-41667D01*
X-60170Y-41674D01*
X-60137Y-41680D01*
X-60091D01*
X-60006Y-41674D01*
X-59927Y-41667D01*
X-59776Y-41628D01*
X-59645Y-41569D01*
X-59534Y-41503D01*
X-59448Y-41444D01*
X-59376Y-41385D01*
X-59356Y-41365D01*
X-59337Y-41346D01*
X-59330Y-41339D01*
X-59324Y-41333D01*
X-59271Y-41260D01*
X-59225Y-41188D01*
X-59147Y-41024D01*
X-59094Y-40847D01*
X-59061Y-40683D01*
X-59048Y-40604D01*
X-59035Y-40526D01*
X-59029Y-40460D01*
Y-40401D01*
X-59022Y-40355D01*
Y-40322D01*
Y-40296D01*
Y-40289D01*
X-59029Y-40165D01*
X-59035Y-40040D01*
X-59048Y-39929D01*
X-59068Y-39830D01*
X-59094Y-39732D01*
X-59120Y-39647D01*
X-59147Y-39568D01*
X-59173Y-39502D01*
X-59199Y-39437D01*
X-59225Y-39384D01*
X-59252Y-39345D01*
X-59278Y-39305D01*
X-59298Y-39279D01*
X-59311Y-39253D01*
X-59324Y-39246D01*
Y-39240D01*
X-59383Y-39181D01*
X-59448Y-39122D01*
X-59507Y-39076D01*
X-59573Y-39037D01*
X-59704Y-38977D01*
X-59822Y-38938D01*
X-59927Y-38912D01*
X-59973Y-38905D01*
X-60013Y-38899D01*
X-60045Y-38892D01*
D02*
G37*
G36*
X-86266Y-37560D02*
X-86305D01*
X-86384Y-37567D01*
X-86462Y-37580D01*
X-86535Y-37600D01*
X-86600Y-37626D01*
X-86725Y-37692D01*
X-86830Y-37764D01*
X-86915Y-37843D01*
X-86974Y-37908D01*
X-87000Y-37934D01*
X-87014Y-37954D01*
X-87027Y-37967D01*
Y-37974D01*
X-87079Y-38059D01*
X-87125Y-38164D01*
X-87164Y-38276D01*
X-87197Y-38400D01*
X-87223Y-38538D01*
X-87250Y-38676D01*
X-87282Y-38951D01*
X-87296Y-39082D01*
X-87309Y-39214D01*
X-87315Y-39325D01*
Y-39423D01*
X-87322Y-39509D01*
Y-39574D01*
Y-39614D01*
Y-39620D01*
Y-39627D01*
Y-39850D01*
X-87309Y-40053D01*
X-87296Y-40237D01*
X-87276Y-40407D01*
X-87256Y-40558D01*
X-87230Y-40696D01*
X-87204Y-40814D01*
X-87177Y-40919D01*
X-87145Y-41011D01*
X-87118Y-41083D01*
X-87092Y-41149D01*
X-87072Y-41195D01*
X-87053Y-41234D01*
X-87040Y-41260D01*
X-87033Y-41273D01*
X-87027Y-41280D01*
X-86974Y-41352D01*
X-86915Y-41411D01*
X-86856Y-41470D01*
X-86790Y-41516D01*
X-86731Y-41556D01*
X-86672Y-41588D01*
X-86561Y-41634D01*
X-86462Y-41667D01*
X-86417Y-41674D01*
X-86384Y-41680D01*
X-86351Y-41687D01*
X-86312D01*
X-86233Y-41680D01*
X-86161Y-41667D01*
X-86089Y-41647D01*
X-86023Y-41621D01*
X-85898Y-41556D01*
X-85793Y-41483D01*
X-85708Y-41411D01*
X-85649Y-41346D01*
X-85629Y-41319D01*
X-85610Y-41300D01*
X-85603Y-41287D01*
X-85597Y-41280D01*
X-85544Y-41195D01*
X-85505Y-41090D01*
X-85465Y-40978D01*
X-85432Y-40847D01*
X-85400Y-40716D01*
X-85380Y-40578D01*
X-85347Y-40303D01*
X-85334Y-40165D01*
X-85321Y-40040D01*
X-85314Y-39929D01*
Y-39830D01*
X-85308Y-39745D01*
Y-39679D01*
Y-39640D01*
Y-39633D01*
Y-39627D01*
X-85314Y-39404D01*
X-85321Y-39200D01*
X-85334Y-39010D01*
X-85360Y-38840D01*
X-85380Y-38682D01*
X-85406Y-38544D01*
X-85439Y-38420D01*
X-85465Y-38315D01*
X-85498Y-38217D01*
X-85524Y-38138D01*
X-85551Y-38072D01*
X-85577Y-38020D01*
X-85597Y-37980D01*
X-85610Y-37947D01*
X-85616Y-37934D01*
X-85623Y-37928D01*
X-85675Y-37862D01*
X-85728Y-37803D01*
X-85780Y-37757D01*
X-85839Y-37718D01*
X-85951Y-37652D01*
X-86062Y-37606D01*
X-86154Y-37580D01*
X-86233Y-37567D01*
X-86266Y-37560D01*
D02*
G37*
%LPD*%
M02*
