G04*
G04 #@! TF.GenerationSoftware,Altium Limited,Altium Designer,22.11.1 (43)*
G04*
G04 Layer_Color=8388736*
%FSLAX25Y25*%
%MOIN*%
G70*
G04*
G04 #@! TF.SameCoordinates,88FEEC96-C8F5-481B-BEC2-3E2380618A1E*
G04*
G04*
G04 #@! TF.FilePolarity,Negative*
G04*
G01*
G75*
%ADD17R,0.05524X0.07099*%
%ADD18R,0.03950X0.03950*%
%ADD19R,0.04343X0.04737*%
%ADD20R,0.04737X0.04343*%
%ADD21C,0.04343*%
%ADD22C,0.07887*%
%ADD23R,0.07887X0.07887*%
%ADD24C,0.01981*%
%ADD25C,0.21272*%
D17*
X-13386Y-32283D02*
D03*
X-23228Y-43307D02*
D03*
X-3543D02*
D03*
D18*
X-82480Y-36811D02*
D03*
Y-42717D02*
D03*
X-49311Y-36614D02*
D03*
Y-42520D02*
D03*
X-65453Y-42717D02*
D03*
Y-36811D02*
D03*
D19*
X-29528Y-27559D02*
D03*
X-23228D02*
D03*
D20*
X-55512Y-36614D02*
D03*
Y-42913D02*
D03*
X-88484Y-36417D02*
D03*
Y-42717D02*
D03*
X-71555Y-36614D02*
D03*
Y-42913D02*
D03*
D21*
X-26772Y-37795D02*
D03*
X0D02*
D03*
D22*
X-99173Y-5000D02*
D03*
Y5000D02*
D03*
X-89173Y-5000D02*
D03*
Y5000D02*
D03*
X-79173Y-5000D02*
D03*
D23*
Y5000D02*
D03*
D24*
X5568Y-5568D02*
D03*
X0Y-7874D02*
D03*
X-5568Y-5568D02*
D03*
X-7874Y0D02*
D03*
X-5568Y5568D02*
D03*
X0Y7874D02*
D03*
X5568Y5568D02*
D03*
X7874Y0D02*
D03*
D25*
X0D02*
D03*
M02*
