M48
;Layer_Color=9474304
;FILE_FORMAT=2:5
INCH,LZ
;TYPE=PLATED
T1F00S00C0.01181
T2F00S00C0.03543
T3F00S00C0.10630
;TYPE=NON_PLATED
T4F00S00C0.03543
%
T01
X-0082284Y-0032874
X-0065551Y-0033465
X-0049213Y-0032874
X-0033268Y-0027559
X-0017913Y-0043307
X-0005568Y-0005568
X0Y-0007874
X0005568Y-0005568
X0007874Y0
X0005568Y0005568
X0Y0007874
X-0005568Y0005568
X-0007874Y0
T02
X-0099173Y-0005
Y0005
X-0089173
Y-0005
X-0079173
Y0005
T03
X0Y0
T04
X-0026772Y-0037795
X0
M30
